<?xml version="1.0" standalone="no"?>
<!DOCTYPE svg PUBLIC "-//W3C//DTD SVG 20010904//EN"
 "http://www.w3.org/TR/2001/REC-SVG-20010904/DTD/svg10.dtd">
<svg version="1.0" xmlns="http://www.w3.org/2000/svg"
 width="1024.000000pt" height="1024.000000pt" viewBox="0 0 1024.000000 1024.000000"
 preserveAspectRatio="xMidYMid meet">

<g transform="translate(0.000000,1024.000000) scale(0.100000,-0.100000)"
fill="#ff5757" stroke="none">
<path d="M3191 8576 c-6 -7 -7 -17 -3 -21 4 -5 2 -5 -4 -2 -13 7 -101 -79 -91
-89 8 -8 -11 -34 -25 -34 -6 0 -4 8 3 18 7 9 -1 4 -19 -12 -17 -16 -29 -34
-25 -39 3 -6 2 -7 -4 -4 -12 7 -100 -80 -90 -89 8 -8 -11 -34 -25 -34 -6 0 -4
8 3 18 7 9 -1 4 -19 -12 -17 -16 -29 -34 -25 -39 3 -6 2 -7 -4 -4 -12 7 -100
-80 -90 -89 8 -8 -11 -34 -25 -34 -6 0 -4 8 3 18 7 9 -1 4 -19 -12 -17 -16
-29 -34 -25 -39 3 -6 2 -7 -4 -4 -12 7 -100 -80 -90 -89 8 -8 -11 -34 -25 -34
-6 0 -4 8 3 18 7 9 -1 4 -19 -12 -17 -16 -29 -34 -25 -39 3 -6 2 -7 -4 -4 -12
7 -100 -80 -90 -89 8 -8 -11 -34 -25 -34 -6 0 -4 8 3 18 7 9 -1 4 -19 -12 -17
-16 -29 -34 -25 -39 3 -6 2 -7 -4 -4 -12 7 -100 -80 -90 -89 8 -8 -11 -34 -25
-34 -6 0 -4 8 3 18 7 9 -1 4 -19 -12 -17 -16 -29 -34 -25 -39 3 -6 2 -7 -4 -4
-12 7 -100 -80 -90 -89 8 -8 -11 -34 -25 -34 -6 0 -4 8 3 18 7 9 -1 4 -19 -12
-17 -16 -29 -34 -25 -39 3 -6 2 -7 -4 -4 -12 7 -100 -80 -90 -89 8 -8 -11 -34
-25 -34 -6 0 -4 8 3 18 7 9 -1 4 -19 -12 -17 -16 -28 -34 -25 -40 3 -6 3 -8
-2 -4 -10 10 -97 -73 -91 -88 5 -13 -12 -34 -27 -34 -5 0 -3 8 4 18 7 9 -1 4
-19 -12 -17 -16 -29 -34 -25 -39 3 -6 2 -7 -4 -4 -12 7 -100 -80 -90 -89 8 -8
-11 -34 -25 -34 -6 0 -4 8 3 18 7 9 -1 4 -19 -12 -17 -16 -29 -34 -25 -39 3
-6 2 -7 -4 -4 -12 7 -100 -80 -90 -89 8 -8 -11 -34 -25 -34 -6 0 -4 8 3 18 7
9 -1 4 -19 -12 -17 -16 -29 -34 -25 -39 3 -6 2 -7 -4 -4 -12 7 -100 -80 -90
-89 8 -8 -11 -34 -25 -34 -6 0 -4 8 3 18 7 9 1 6 -13 -7 -15 -13 -26 -26 -25
-30 1 -3 -2 -7 -7 -7 -17 -3 -96 -89 -92 -100 5 -13 -12 -34 -27 -34 -5 0 -3
8 4 18 7 9 -1 4 -19 -12 -17 -16 -29 -34 -25 -39 3 -6 2 -7 -4 -4 -13 8 -97
-78 -89 -91 3 -5 -2 -16 -11 -23 -15 -12 -16 -12 -9 5 7 19 6 19 -13 2 -11
-10 -18 -23 -15 -28 3 -4 0 -7 -8 -6 -7 2 -12 -3 -10 -10 1 -8 -1 -11 -6 -8
-11 7 -98 -81 -89 -90 8 -8 -11 -34 -25 -34 -6 0 -4 8 3 18 7 9 -1 4 -19 -12
-17 -16 -28 -34 -25 -40 3 -6 3 -8 -2 -4 -10 10 -97 -73 -91 -88 5 -13 -12
-34 -27 -34 -5 0 -3 8 4 18 7 9 -1 4 -19 -12 -17 -16 -29 -34 -25 -39 3 -6 2
-7 -4 -4 -12 7 -100 -80 -90 -89 8 -8 -11 -34 -25 -34 -6 0 -4 8 3 18 7 9 -1
4 -19 -12 -17 -16 -28 -34 -25 -40 3 -6 3 -8 -1 -4 -4 3 -19 -3 -32 -15 l-25
-21 47 -44 c36 -33 49 -40 56 -30 7 9 8 8 4 -6 -8 -25 57 -88 82 -79 13 4 14
3 4 -5 -11 -7 -6 -17 23 -47 30 -29 40 -34 47 -23 7 9 8 8 4 -6 -8 -25 57 -88
82 -79 13 4 14 3 4 -5 -11 -7 -6 -17 23 -47 30 -29 40 -34 47 -23 7 9 8 8 4
-6 -8 -25 57 -88 82 -79 13 4 14 3 4 -5 -11 -7 -6 -17 23 -47 30 -29 40 -34
47 -23 7 9 8 8 4 -6 -8 -25 57 -88 82 -79 13 4 14 3 4 -5 -11 -7 -6 -17 23
-47 30 -29 40 -34 47 -23 7 9 8 8 4 -6 -8 -25 57 -88 82 -79 13 4 14 3 4 -5
-20 -13 131 -164 156 -156 13 5 14 4 4 -4 -20 -13 131 -164 156 -156 13 5 14
4 4 -4 -11 -7 -6 -17 23 -47 30 -29 40 -34 47 -23 7 9 8 8 4 -6 -8 -25 57 -88
82 -79 13 4 14 3 4 -5 -11 -7 -6 -17 23 -47 30 -29 40 -34 47 -23 7 9 8 8 4
-6 -8 -25 57 -88 82 -79 13 4 14 3 4 -5 -11 -7 -6 -17 23 -47 30 -29 40 -34
47 -23 7 9 8 8 4 -6 -8 -25 57 -88 82 -79 13 4 14 3 4 -5 -20 -13 131 -164
156 -156 13 5 14 4 4 -4 -11 -7 -6 -17 23 -47 30 -29 40 -34 47 -23 7 9 8 8 4
-6 -8 -25 57 -88 82 -79 13 4 14 3 4 -5 -11 -7 -6 -17 23 -47 30 -29 40 -34
47 -23 7 9 8 8 4 -6 -8 -25 57 -88 82 -79 13 4 14 3 4 -5 -11 -7 -6 -17 23
-47 30 -29 40 -34 47 -23 7 9 8 8 4 -6 -5 -14 34 -58 170 -195 98 -97 181
-175 186 -174 4 2 7 -1 5 -5 -3 -11 143 -158 154 -155 5 2 8 0 7 -5 -4 -10 74
-92 88 -92 6 0 28 18 47 39 19 22 38 37 41 33 10 -10 6 13 -4 26 -7 9 -7 9 2
2 14 -12 31 -13 26 -2 -6 10 50 61 58 53 4 -3 4 2 1 11 -4 13 -2 15 10 11 9
-4 14 -2 12 3 -6 11 47 64 55 56 10 -10 6 14 -4 26 -7 9 -7 9 2 2 14 -12 31
-13 26 -2 -6 10 50 61 58 53 4 -3 4 2 1 11 -4 13 -2 15 10 11 9 -4 14 -2 12 3
-6 11 47 64 55 56 10 -10 6 14 -4 26 -7 9 -7 9 2 2 14 -12 31 -13 26 -2 -6 10
50 61 58 53 4 -3 4 2 1 11 -4 13 -2 15 11 11 9 -3 14 -3 10 1 -4 4 9 21 28 38
19 16 31 35 27 41 -3 5 -2 7 4 4 13 -8 86 67 76 78 -5 4 -3 5 3 2 14 -8 87 66
77 78 -5 4 -3 5 3 2 14 -8 87 66 77 78 -5 4 -3 5 3 2 14 -8 87 66 77 78 -5 4
-3 5 3 2 14 -8 87 66 77 78 -5 4 -3 5 3 2 14 -8 87 66 77 78 -5 4 -3 5 3 2 14
-8 77 56 67 68 -5 4 -3 5 3 2 10 -6 83 60 84 76 0 4 2 6 4 5 10 -6 75 66 69
75 -3 6 -2 7 4 4 9 -6 82 60 83 76 0 4 2 6 4 5 10 -6 75 66 69 75 -3 6 -2 7 4
4 9 -6 82 60 83 76 0 4 2 6 4 5 10 -6 75 66 69 75 -3 6 -2 7 4 4 9 -6 79 58
85 78 2 6 6 9 9 8 7 -2 74 65 74 75 0 4 3 6 6 5 7 -2 74 65 74 75 0 4 3 6 6 5
7 -2 67 58 71 72 2 5 6 9 9 8 7 -2 68 59 69 70 0 4 2 6 4 5 10 -6 75 66 69 75
-3 6 -2 7 4 4 9 -6 82 60 83 76 0 4 2 6 4 5 10 -6 75 66 69 75 -3 6 -2 7 4 4
9 -6 82 60 83 76 0 4 2 6 4 5 10 -6 75 66 69 75 -3 6 -2 7 4 4 5 -3 27 12 48
33 22 22 35 40 31 40 -5 0 -3 7 4 15 7 8 16 13 20 10 11 -7 61 50 53 60 -5 4
-3 5 3 2 10 -6 92 69 87 78 -2 3 -1 4 1 3 10 -6 75 66 69 75 -3 6 -2 7 4 4 9
-6 82 60 83 76 0 4 2 6 4 5 10 -6 75 66 69 75 -3 6 -2 7 4 4 9 -6 91 69 86 78
-2 3 -1 4 1 3 10 -6 75 66 69 75 -3 6 -2 7 4 4 9 -6 82 60 83 76 0 4 3 7 8 7
15 1 81 74 75 83 -3 6 -2 7 4 4 13 -8 86 67 76 78 -5 4 -3 5 3 2 14 -8 77 56
67 69 -5 5 -4 6 1 1 12 -10 97 73 89 86 -3 6 -2 7 4 4 9 -6 72 50 73 66 0 4 2
6 5 5 9 -6 84 76 78 85 -3 6 -2 7 4 4 9 -6 72 50 73 66 0 4 2 6 4 5 8 -5 75
65 73 76 -1 5 5 11 13 11 8 0 14 7 12 14 -1 7 2 10 7 7 5 -4 12 -2 16 4 4 6
14 4 29 -5 12 -8 26 -12 31 -8 4 5 5 3 2 -3 -8 -14 26 -47 38 -37 4 5 5 3 2
-4 -9 -15 21 -45 35 -37 6 4 8 2 5 -3 -8 -13 27 -46 38 -36 4 5 5 3 2 -4 -9
-15 21 -45 35 -37 6 4 9 3 5 -2 -8 -14 20 -47 34 -38 7 4 10 3 6 -4 -9 -14
101 -124 115 -116 7 4 8 2 4 -5 -9 -15 20 -44 35 -35 7 4 9 3 6 -3 -4 -6 2
-22 14 -34 11 -13 17 -17 13 -9 -5 10 0 8 15 -4 15 -13 18 -22 10 -27 -6 -4
-8 -12 -4 -19 5 -9 4 -11 -4 -6 -14 9 -133 -113 -124 -127 3 -6 2 -7 -4 -4
-12 8 -119 -99 -115 -114 1 -6 -2 -8 -7 -5 -13 8 -43 -23 -35 -36 4 -6 3 -8
-3 -5 -12 8 -119 -99 -115 -114 1 -6 -2 -8 -7 -5 -13 8 -43 -23 -35 -36 4 -6
3 -8 -3 -5 -12 8 -119 -99 -115 -114 1 -6 -2 -8 -7 -5 -12 8 -43 -23 -35 -35
3 -5 1 -8 -5 -7 -15 4 -122 -103 -114 -115 3 -6 1 -7 -5 -3 -13 8 -44 -22 -36
-35 3 -5 1 -8 -5 -7 -15 4 -122 -103 -114 -115 3 -6 1 -7 -5 -3 -13 8 -44 -22
-36 -35 3 -5 1 -8 -5 -7 -15 4 -122 -103 -114 -115 3 -6 1 -7 -5 -3 -13 8 -44
-22 -36 -35 3 -5 1 -8 -5 -7 -15 4 -122 -103 -114 -115 3 -6 1 -7 -5 -3 -13 8
-44 -22 -36 -35 3 -5 1 -8 -5 -7 -15 4 -122 -103 -114 -115 3 -6 1 -7 -5 -3
-12 7 -45 -22 -37 -34 3 -5 0 -12 -6 -16 -8 -5 -9 -3 -4 7 5 8 -1 6 -13 -5
-12 -10 -19 -23 -15 -29 3 -6 1 -7 -5 -3 -12 7 -79 -61 -74 -76 1 -5 -2 -7 -7
-4 -12 8 -43 -22 -36 -34 3 -5 0 -12 -6 -16 -8 -5 -9 -3 -4 7 5 8 -1 6 -13 -5
-12 -10 -19 -23 -15 -29 4 -6 1 -7 -6 -2 -13 8 -79 -62 -73 -78 1 -5 -2 -6 -7
-3 -12 8 -43 -23 -35 -35 3 -5 1 -8 -5 -7 -15 4 -122 -103 -114 -115 3 -6 1
-7 -5 -3 -12 7 -45 -22 -37 -34 3 -5 0 -12 -6 -16 -8 -5 -9 -3 -4 7 5 8 -1 6
-13 -5 -12 -10 -19 -23 -15 -29 3 -6 1 -7 -5 -3 -12 7 -79 -61 -74 -76 1 -5
-2 -7 -7 -4 -13 8 -43 -23 -35 -36 4 -6 3 -8 -3 -5 -13 8 -125 -102 -116 -116
3 -5 1 -7 -5 -3 -12 7 -45 -22 -37 -34 3 -5 0 -12 -6 -16 -8 -5 -9 -3 -4 7 5
8 -1 6 -13 -5 -12 -10 -19 -23 -15 -29 3 -6 1 -7 -5 -3 -12 7 -79 -61 -74 -76
1 -5 -2 -7 -7 -4 -12 8 -43 -23 -35 -35 3 -5 1 -8 -5 -7 -15 4 -122 -103 -114
-115 3 -6 1 -7 -5 -3 -13 8 -44 -22 -36 -35 3 -5 1 -8 -5 -7 -15 4 -122 -103
-114 -115 3 -6 1 -7 -5 -3 -13 8 -44 -22 -36 -35 3 -5 1 -8 -5 -7 -15 4 -122
-103 -114 -115 3 -6 1 -7 -5 -3 -12 7 -45 -22 -37 -34 3 -5 0 -12 -6 -16 -8
-5 -9 -3 -4 7 5 8 -1 6 -13 -5 -12 -10 -19 -23 -15 -29 3 -6 1 -7 -6 -3 -7 5
-25 -7 -46 -29 -36 -37 -44 -52 -23 -39 7 4 8 3 4 -4 -4 -6 -13 -9 -21 -6 -11
5 -35 -24 -39 -46 -1 -2 -7 -5 -15 -7 -19 -2 -102 -94 -95 -104 3 -5 -2 -6
-10 -3 -13 5 -45 -35 -35 -45 2 -2 -5 -5 -15 -7 -22 -3 -108 -93 -100 -105 3
-5 -2 -6 -10 -3 -13 5 -43 -32 -37 -45 1 -3 -6 -6 -15 -7 -21 -3 -105 -94 -98
-105 3 -5 -2 -6 -10 -3 -13 5 -43 -32 -37 -45 1 -3 -6 -6 -15 -7 -21 -3 -105
-94 -98 -105 3 -5 -2 -6 -10 -3 -13 5 -43 -32 -37 -45 1 -3 -6 -6 -15 -7 -21
-3 -105 -94 -98 -105 3 -5 -2 -6 -10 -3 -13 5 -26 -10 -38 -41 -1 -5 -9 -10
-17 -12 -19 -2 -102 -94 -95 -104 3 -5 -2 -6 -10 -3 -13 5 -43 -32 -37 -45 1
-3 -6 -6 -15 -7 -21 -3 -105 -94 -98 -105 3 -5 -2 -6 -10 -3 -13 5 -45 -35
-35 -45 2 -2 -4 -5 -14 -7 -24 -3 -108 -86 -103 -100 6 -14 -29 -11 -48 5 -9
8 -16 10 -16 7 0 -4 -6 -1 -14 6 -8 7 -12 15 -10 17 7 8 -49 61 -58 55 -4 -3
-8 -1 -8 5 0 14 -60 82 -69 77 -3 -2 -12 2 -19 10 -7 8 -10 14 -6 14 4 0 -5
13 -21 30 -15 16 -32 27 -37 24 -4 -3 -8 -1 -8 5 0 14 -60 82 -69 77 -3 -2
-12 2 -19 10 -7 8 -10 14 -6 14 4 0 -5 13 -21 30 -15 16 -32 27 -37 24 -4 -3
-8 -1 -8 5 0 14 -60 82 -69 77 -3 -2 -12 2 -19 10 -7 8 -10 14 -6 14 4 0 -5
13 -21 30 -15 16 -32 27 -37 24 -4 -3 -8 -1 -8 5 0 14 -60 82 -69 77 -3 -2
-12 2 -19 10 -7 8 -10 14 -6 14 4 0 -5 13 -21 30 -15 16 -32 27 -37 24 -4 -3
-8 -1 -8 5 0 13 -61 83 -67 77 -7 -6 -32 17 -27 25 2 3 -10 19 -26 34 -17 16
-30 25 -30 20 0 -4 -10 7 -22 25 -13 18 -32 38 -43 44 -25 14 -49 36 -39 36 4
0 -5 13 -21 30 -15 16 -31 28 -34 26 -3 -2 -12 2 -19 10 -7 8 -10 14 -6 14 4
0 -3 11 -16 25 -13 14 -28 25 -32 25 -5 0 -16 7 -24 15 -9 8 -12 15 -8 15 4 0
-3 11 -16 25 -13 14 -28 25 -32 25 -5 0 -16 7 -24 15 -9 8 -12 15 -8 15 4 0
-3 11 -16 25 -13 14 -28 25 -32 25 -5 0 -16 7 -24 15 -9 8 -12 15 -8 15 4 0
-3 11 -16 25 -13 14 -28 25 -32 25 -5 0 -16 7 -24 15 -9 8 -12 15 -8 15 4 0
-3 11 -16 25 -13 14 -28 25 -32 25 -5 0 -16 7 -24 15 -9 8 -12 15 -8 15 4 0
-3 11 -16 25 -13 14 -28 25 -32 25 -5 0 -16 7 -24 15 -9 8 -12 15 -8 15 4 0
-3 11 -16 25 -13 14 -28 25 -32 25 -5 0 -16 7 -24 15 -9 8 -12 15 -8 15 4 0
-3 11 -16 25 -13 14 -28 25 -32 25 -5 0 -16 7 -24 15 -9 8 -12 15 -8 15 4 0
-3 11 -16 25 -13 14 -28 25 -32 25 -5 0 -16 7 -24 15 -9 8 -12 15 -8 15 4 0
-3 11 -16 25 -13 14 -28 25 -32 25 -5 0 -16 7 -24 15 -9 8 -12 15 -8 15 4 0
-3 11 -16 25 -13 14 -28 25 -32 25 -5 0 -16 7 -24 15 -9 8 -12 15 -8 15 4 0
-3 11 -16 25 -13 14 -28 25 -32 25 -5 0 -16 7 -24 15 -9 8 -12 15 -8 15 4 0
-3 11 -16 25 -13 14 -28 25 -32 25 -5 0 -16 7 -24 15 -9 8 -12 15 -8 15 4 0
-3 11 -16 25 -13 14 -28 25 -32 25 -5 0 -16 7 -24 15 -9 8 -12 15 -8 15 4 0
-3 11 -16 25 -13 14 -29 25 -36 25 -7 0 -15 8 -18 18 -10 31 -63 76 -71 61 -5
-7 -4 -10 3 -5 6 3 13 2 16 -3 4 -5 -2 -8 -11 -6 -10 1 -16 9 -14 16 2 8 4 21
5 30 1 8 21 32 44 53 23 21 39 43 35 49 -3 6 -1 7 5 3 12 -7 79 61 74 76 -1 5
1 7 6 4 10 -6 19 0 61 47 28 30 32 40 22 50 -10 10 -11 8 -6 -8 5 -16 5 -17
-3 -5 -6 8 -9 17 -7 21 8 13 -83 102 -96 94 -8 -5 -10 -4 -5 3 4 6 -11 30 -34
54 l-40 43 -54 -54 c-30 -30 -54 -57 -53 -60 1 -3 -1 -6 -5 -6 -10 0 -157
-147 -155 -154 1 -3 -1 -6 -5 -6 -13 0 -157 -148 -152 -156 2 -4 -1 -11 -7
-15 -8 -5 -9 -3 -4 7 4 8 -6 1 -24 -16 -29 -27 -31 -31 -15 -42 10 -7 22 -13
28 -13 5 0 7 -2 5 -5 -3 -2 615 -624 1373 -1382 l1378 -1378 84 84 c47 47 82
89 79 94 -3 6 -2 7 4 4 9 -6 81 59 76 69 -2 2 -1 3 2 2 9 -6 84 76 78 85 -3 6
-2 7 4 4 11 -7 77 56 68 65 -3 3 3 11 12 19 17 13 17 13 3 -6 -8 -11 5 -2 28
19 22 22 38 44 35 49 -3 6 -2 7 4 4 13 -8 86 67 76 77 -5 4 -1 6 7 4 8 -2 14
3 12 10 -1 8 1 11 6 8 12 -7 64 48 55 59 -5 4 -3 5 3 2 13 -8 87 66 77 77 -5
4 -1 6 7 4 8 -2 14 3 12 10 -1 8 1 11 6 8 12 -7 64 48 55 59 -5 4 -3 5 3 2 12
-7 107 85 99 96 -3 4 -2 5 2 2 4 -3 24 11 45 31 34 34 36 38 20 51 -15 13 -15
13 4 4 18 -8 27 -4 58 28 20 20 35 39 34 42 -2 2 -1 3 1 1 3 -1 22 14 43 34
34 34 36 38 20 51 -15 13 -15 13 4 4 18 -8 27 -3 64 34 23 24 39 48 36 53 -3
6 -1 14 5 18 8 4 9 3 5 -4 -14 -23 10 -12 37 16 15 16 24 32 20 37 -5 4 -3 5
3 2 14 -8 98 78 90 91 -3 6 -1 14 5 18 8 4 9 3 5 -4 -14 -23 10 -12 37 16 15
16 24 32 20 37 -5 4 -3 5 3 2 14 -8 67 46 57 58 -5 4 -3 5 3 2 14 -8 38 18 30
32 -4 5 -1 13 5 17 8 4 9 3 5 -4 -4 -7 -3 -12 1 -12 16 0 124 116 116 125 -5
4 -3 6 3 2 11 -6 71 52 66 66 -1 4 1 6 6 3 12 -7 94 78 85 88 -5 4 -3 6 3 4
14 -4 74 54 67 65 -3 6 -2 7 4 4 9 -6 116 94 111 104 -2 2 -1 3 0 2 9 -4 50
41 45 50 -3 6 -2 7 4 4 11 -7 116 96 108 106 -3 4 -2 5 1 3 10 -7 54 36 47 47
-3 6 -2 7 4 4 11 -7 239 222 235 235 -1 5 2 7 7 4 5 -3 22 10 37 30 46 57 54
64 74 64 10 0 26 -10 34 -22 9 -12 31 -31 49 -41 17 -10 24 -16 14 -13 -10 3
4 -17 31 -44 47 -48 72 -64 56 -37 -5 8 -2 8 9 -2 18 -15 23 -26 7 -16 -28 17
-2 -16 64 -81 68 -69 98 -91 80 -61 -5 8 -2 8 9 -2 18 -15 23 -26 7 -16 -28
17 -2 -16 64 -81 68 -69 98 -91 80 -61 -5 8 -2 8 9 -2 18 -15 23 -26 7 -16
-28 17 -2 -16 64 -81 68 -69 98 -91 80 -61 -5 8 -2 8 9 -2 18 -15 23 -26 7
-16 -28 17 -2 -16 64 -81 65 -66 98 -92 81 -64 -10 16 1 11 16 -7 10 -11 10
-14 2 -9 -30 18 -8 -12 61 -80 65 -66 98 -92 81 -64 -10 16 1 11 16 -7 10 -11
10 -14 2 -9 -7 4 -13 4 -13 -1 0 -13 87 -92 94 -86 3 4 6 1 6 -5 0 -20 43 -63
58 -57 7 2 10 0 7 -5 -8 -12 34 -55 63 -64 14 -5 19 -12 15 -24 -5 -12 1 -10
20 7 29 27 37 42 10 20 -15 -13 -15 -12 -3 8 11 16 17 19 27 11 19 -15 16 2
-4 26 -18 21 -18 21 3 3 26 -21 38 -22 30 -1 -3 8 -2 13 3 10 4 -3 17 4 27 17
19 21 19 21 -1 7 -19 -14 -19 -14 -6 3 8 10 19 16 25 14 6 -2 27 15 46 37 31
36 31 38 5 16 l-29 -25 25 31 c17 23 27 29 37 21 18 -14 15 3 -5 27 -18 21
-18 21 3 3 26 -21 38 -22 30 -1 -3 8 -2 13 3 9 5 -3 18 6 29 20 11 13 22 22
25 19 3 -3 8 5 12 18 9 29 44 68 62 68 7 0 18 11 23 25 5 14 12 25 15 25 4 0
3 -6 -1 -12 -5 -9 -3 -9 9 1 9 7 14 18 10 24 -3 6 -1 7 5 3 7 -4 12 -2 12 4 0
6 4 9 9 5 5 -3 13 5 16 17 9 28 44 68 60 68 17 0 46 35 38 45 -5 4 -3 5 4 1 6
-3 18 3 26 14 7 11 16 17 19 14 3 -3 10 9 16 25 6 17 14 31 17 31 3 0 3 -6 -1
-12 -4 -7 2 -4 14 6 24 21 29 32 10 20 -7 -4 -8 -3 -4 4 4 7 13 12 20 12 18 0
48 35 39 45 -5 4 -3 5 4 1 6 -3 18 3 26 14 7 11 16 17 19 14 3 -3 10 9 16 25
6 17 14 31 17 31 3 0 3 -6 -1 -12 -4 -7 2 -4 14 6 24 21 29 32 10 20 -7 -4 -8
-3 -4 4 4 7 13 12 20 12 18 0 48 35 39 44 -5 4 -1 6 7 4 8 -1 14 2 13 8 -1 7
5 11 15 10 10 0 16 6 16 16 -1 10 2 15 7 12 5 -3 9 2 9 10 0 8 4 18 10 21 6 4
7 -1 4 -12 -6 -15 -4 -15 9 2 8 11 13 24 10 29 -4 5 -1 6 5 2 7 -4 12 -2 12 4
0 6 5 8 12 4 8 -5 9 -2 5 9 -3 9 -3 16 1 16 23 -4 34 3 28 17 -3 8 -2 13 3 10
5 -3 23 9 39 28 17 19 34 32 38 28 4 -4 4 1 1 11 -4 10 -3 16 2 13 5 -3 23 9
39 28 17 19 33 32 36 29 12 -12 6 13 -6 27 -11 12 -10 12 3 2 14 -10 21 -7 47
22 16 19 33 32 37 28 4 -4 5 2 3 13 -2 11 2 19 9 18 6 -2 23 11 36 27 14 16
28 26 31 23 12 -12 6 13 -6 27 -11 12 -10 12 3 2 14 -10 21 -7 47 22 16 19 34
32 38 28 4 -4 4 1 1 11 -4 10 -3 16 2 13 5 -3 23 10 40 29 17 20 31 33 31 30
0 -4 18 15 40 40 22 25 40 43 40 40 0 -3 18 15 40 40 22 25 40 43 40 40 0 -4
9 3 19 16 l20 24 -86 87 c-48 48 -90 85 -95 82 -5 -3 -7 -2 -6 3 2 4 -2 8 -7
8 -5 0 -9 -4 -7 -8 1 -5 -2 -6 -7 -2 -6 3 -7 13 -4 23 3 9 -17 -7 -46 -37 -28
-29 -48 -58 -44 -64 3 -5 2 -7 -4 -4 -14 9 -55 -32 -47 -45 4 -6 3 -8 -3 -5
-14 9 -115 -91 -107 -105 4 -6 3 -8 -3 -5 -14 9 -55 -32 -47 -45 4 -6 3 -8 -3
-5 -14 9 -115 -91 -107 -105 4 -6 3 -8 -3 -5 -14 9 -55 -32 -47 -45 4 -6 3 -8
-3 -5 -14 9 -115 -91 -107 -105 4 -6 3 -8 -3 -5 -14 9 -55 -32 -47 -45 4 -6 3
-8 -3 -5 -14 9 -165 -142 -156 -156 3 -5 1 -7 -4 -4 -14 9 -165 -142 -156
-156 3 -5 2 -7 -4 -4 -15 9 -86 -60 -77 -74 4 -7 3 -9 -3 -6 -6 4 -20 -5 -33
-18 -13 -13 -27 -22 -31 -19 -8 5 -14 -18 -10 -39 1 -5 -3 -6 -8 -3 -13 8
-162 -144 -154 -157 3 -5 1 -7 -4 -4 -14 9 -165 -142 -156 -156 3 -5 2 -7 -4
-4 -5 3 -27 -10 -49 -29 -38 -36 -39 -36 -53 -15 -14 21 -38 30 -25 9 4 -7 3
-8 -5 -4 -6 4 -9 11 -6 15 7 12 -63 83 -75 76 -6 -4 -7 1 -3 11 4 10 2 15 -3
11 -5 -3 -20 10 -33 29 -14 19 -30 33 -37 30 -9 -3 -11 0 -7 11 4 9 2 14 -3
10 -5 -3 -20 10 -33 29 -14 19 -30 33 -37 30 -9 -3 -11 0 -7 11 4 9 2 14 -3
10 -5 -3 -20 10 -33 29 -14 19 -30 33 -37 30 -9 -3 -11 0 -7 11 4 9 2 14 -3
10 -5 -3 -20 10 -33 29 -14 19 -30 33 -37 30 -9 -3 -11 0 -7 11 4 9 2 14 -3
10 -5 -3 -20 10 -33 29 -14 19 -30 33 -37 30 -9 -3 -11 0 -7 11 4 9 2 14 -3
10 -5 -3 -20 10 -33 29 -14 19 -30 33 -37 30 -9 -3 -11 0 -7 11 4 9 2 14 -3
10 -5 -3 -20 10 -33 29 -13 19 -28 34 -33 34 -5 0 -6 -5 -2 -12 4 -7 3 -8 -5
-4 -6 4 -9 11 -6 17 8 12 -63 82 -75 74 -6 -4 -7 1 -3 11 4 10 2 15 -3 11 -5
-3 -20 10 -33 29 -14 19 -30 33 -37 30 -9 -3 -11 0 -7 11 4 9 2 14 -3 10 -5
-3 -20 10 -33 29 -14 19 -30 33 -37 30 -9 -3 -11 0 -7 11 4 9 2 14 -3 10 -5
-3 -20 10 -33 29 -14 19 -29 33 -36 30 -7 -2 -12 8 -12 30 0 18 3 31 7 29 11
-7 71 60 63 70 -5 4 -3 5 3 2 13 -8 87 66 77 77 -5 4 -1 6 7 4 9 -2 14 3 12
12 -2 8 0 12 4 7 10 -10 65 43 57 56 -3 6 -2 7 4 4 13 -8 86 67 76 77 -5 4 -1
6 7 4 9 -2 14 3 12 12 -2 8 0 12 4 7 4 -4 25 9 46 29 34 34 36 38 20 51 -15
13 -15 13 4 4 18 -8 27 -4 58 28 20 20 33 41 29 46 -5 4 -3 5 3 2 14 -8 87 66
77 78 -5 4 -3 5 3 2 14 -8 67 46 57 58 -5 4 -3 5 3 2 14 -8 38 18 30 32 -4 5
-1 13 5 17 8 4 9 3 5 -4 -14 -23 10 -12 37 16 15 16 24 32 20 37 -5 4 -3 5 3
2 14 -8 67 46 57 58 -5 4 -3 5 3 2 14 -8 38 18 30 32 -4 5 -1 13 5 17 8 4 9 3
5 -4 -4 -7 -3 -12 1 -12 16 0 124 116 116 125 -5 4 -3 6 3 2 11 -6 71 52 66
66 -1 4 1 6 6 3 11 -6 115 97 107 107 -3 4 -2 5 1 3 10 -7 54 36 47 47 -3 6
-2 7 4 4 9 -6 116 94 111 104 -2 2 -1 3 1 2 7 -4 129 122 125 129 -3 5 -1 7 4
6 12 -4 158 142 154 154 -1 5 1 7 6 4 9 -6 51 36 70 70 6 10 19 19 29 19 20 0
43 -16 37 -27 -6 -10 47 -49 57 -42 5 3 8 1 7 -4 -5 -15 62 -83 74 -76 6 4 8
3 5 -3 -8 -13 27 -46 38 -36 4 5 5 3 2 -4 -9 -14 21 -46 34 -37 5 3 8 1 7 -4
-5 -15 62 -83 74 -76 6 4 8 3 5 -3 -8 -13 27 -46 38 -36 4 5 5 3 2 -4 -9 -14
21 -46 34 -37 5 3 8 0 7 -8 -2 -7 3 -12 9 -11 7 2 12 -3 10 -10 -1 -6 4 -11
11 -9 8 1 11 -2 8 -7 -8 -13 23 -43 36 -35 6 4 8 2 5 -3 -8 -13 27 -46 38 -36
4 5 5 3 2 -4 -9 -15 21 -45 35 -37 6 4 8 2 5 -3 -8 -13 27 -46 38 -36 4 5 5 3
2 -4 -9 -15 21 -45 35 -37 6 4 8 2 5 -3 -8 -13 27 -46 38 -36 4 5 5 3 2 -4 -9
-15 21 -45 35 -37 6 4 8 2 5 -3 -8 -13 27 -46 38 -36 4 5 5 3 2 -4 -9 -15 21
-45 35 -37 6 4 8 2 5 -3 -7 -12 26 -46 36 -38 4 3 5 2 2 -1 -9 -13 17 -46 31
-40 8 3 13 2 10 -3 -8 -12 29 -43 39 -34 4 5 5 3 2 -4 -9 -15 21 -45 35 -37 6
4 8 2 5 -3 -8 -13 27 -46 38 -36 4 5 5 3 2 -4 -9 -15 21 -45 35 -37 6 4 8 2 5
-3 -8 -13 27 -46 38 -36 4 5 5 3 2 -4 -9 -15 21 -45 35 -37 6 4 8 2 5 -3 -7
-12 26 -46 36 -38 4 3 5 2 2 -1 -9 -13 17 -46 31 -40 8 3 13 2 10 -3 -8 -12
29 -43 39 -34 4 5 5 3 2 -4 -9 -15 21 -45 35 -37 7 5 8 2 4 -5 -9 -14 24 -42
39 -34 5 4 7 3 3 -2 -12 -13 12 -47 28 -41 9 3 12 1 9 -4 -9 -14 22 -43 36
-34 7 4 9 3 5 -4 -8 -14 22 -44 36 -36 7 4 8 2 4 -5 -9 -15 20 -44 35 -35 7 4
9 3 5 -4 -8 -14 22 -44 36 -36 7 4 8 2 4 -5 -9 -15 20 -44 35 -35 7 4 9 3 5
-4 -7 -12 22 -45 34 -37 5 3 12 0 16 -6 4 -8 3 -9 -4 -5 -22 13 -12 -2 28 -45
22 -24 40 -49 40 -55 0 -7 -18 -28 -41 -48 -26 -22 -38 -39 -33 -47 4 -7 3
-10 -3 -6 -11 7 -57 -36 -48 -45 3 -2 -4 -13 -15 -23 -11 -10 -20 -14 -20 -10
0 5 -13 -4 -30 -20 -16 -15 -27 -31 -25 -35 3 -4 -2 -13 -10 -20 -8 -7 -15 -9
-15 -4 0 4 -11 -3 -25 -16 -13 -12 -22 -26 -20 -30 3 -4 -3 -14 -12 -21 -12
-10 -14 -10 -9 -1 4 6 5 12 1 12 -8 0 -70 -72 -70 -81 0 -4 -6 -14 -13 -21 -6
-6 -12 -8 -12 -3 0 5 -11 -2 -25 -15 -13 -12 -22 -26 -20 -30 3 -4 -4 -15 -15
-25 -11 -10 -20 -14 -20 -9 0 4 -29 -20 -65 -56 -35 -35 -62 -67 -60 -70 3 -4
-4 -15 -15 -25 -11 -10 -20 -14 -20 -10 0 5 -13 -4 -30 -20 -16 -15 -27 -31
-25 -35 3 -4 -2 -13 -10 -20 -8 -7 -15 -9 -15 -4 0 4 -11 -3 -25 -16 -13 -12
-22 -26 -20 -30 3 -4 -4 -15 -15 -25 -11 -10 -20 -14 -20 -10 0 5 -13 -4 -30
-20 -16 -15 -27 -31 -25 -35 3 -4 -2 -13 -10 -20 -8 -7 -15 -9 -15 -4 0 4 -11
-3 -25 -16 -13 -12 -22 -26 -20 -30 3 -4 -4 -15 -15 -25 -11 -10 -20 -14 -20
-9 0 4 -29 -20 -65 -56 -35 -35 -62 -67 -60 -70 3 -4 -4 -15 -15 -25 -11 -10
-20 -14 -20 -10 0 5 -13 -4 -30 -20 -16 -15 -27 -31 -25 -35 3 -4 -2 -13 -10
-20 -8 -7 -15 -9 -15 -4 0 4 -11 -3 -25 -16 -13 -12 -22 -26 -20 -30 3 -4 -4
-15 -15 -25 -11 -10 -20 -14 -20 -10 0 5 -13 -4 -30 -20 -16 -15 -27 -31 -25
-35 3 -4 -2 -13 -10 -20 -8 -7 -15 -9 -15 -4 0 5 -31 -23 -70 -61 -38 -37 -67
-72 -65 -76 3 -4 -2 -12 -10 -19 -8 -7 -15 -9 -15 -4 0 4 -11 -3 -25 -16 -13
-12 -22 -26 -20 -30 3 -4 -4 -15 -15 -25 -11 -10 -20 -14 -20 -10 0 5 -13 -4
-30 -20 -16 -15 -27 -31 -25 -35 3 -4 -2 -13 -10 -20 -8 -7 -15 -9 -15 -4 0 4
-11 -3 -25 -16 -13 -12 -22 -26 -20 -30 3 -4 -4 -15 -15 -25 -11 -10 -20 -14
-20 -10 0 5 -13 -4 -30 -20 -16 -15 -27 -31 -25 -35 3 -4 -2 -13 -10 -20 -8
-7 -15 -9 -15 -4 0 4 -11 -3 -25 -16 -13 -12 -22 -26 -20 -30 3 -4 -4 -15 -15
-25 -11 -10 -20 -14 -20 -10 0 5 -13 -4 -30 -20 -16 -15 -27 -31 -25 -35 3 -4
-2 -13 -10 -20 -8 -7 -15 -9 -15 -4 0 4 -11 -3 -25 -16 -13 -12 -22 -26 -20
-30 3 -4 -4 -15 -15 -25 -11 -10 -20 -14 -20 -10 0 5 -13 -4 -30 -20 -16 -15
-27 -31 -25 -35 3 -4 -2 -13 -10 -20 -8 -7 -15 -9 -15 -4 0 4 -11 -3 -25 -16
-13 -12 -22 -26 -20 -30 3 -4 -4 -15 -15 -25 -11 -10 -20 -14 -20 -10 0 5 -13
-4 -30 -20 -16 -15 -27 -31 -25 -35 3 -4 -2 -13 -10 -20 -8 -7 -15 -10 -15 -6
0 4 -11 -1 -26 -10 -24 -16 -26 -16 -40 5 -9 12 -20 18 -26 15 -6 -4 -9 -3 -5
2 3 5 -322 337 -722 737 -561 561 -732 726 -745 721 -9 -4 -15 -13 -12 -20 3
-9 0 -11 -11 -7 -13 5 -15 2 -10 -11 4 -10 3 -15 -3 -11 -11 7 -70 -52 -67
-67 1 -6 -5 -12 -14 -13 -39 -7 -102 -85 -68 -85 5 0 8 4 4 9 -3 5 -1 12 4 15
4 3 8 -4 7 -17 0 -12 4 -22 11 -22 6 0 15 -4 20 -9 5 -5 3 -6 -4 -2 -7 4 -13
4 -13 -1 0 -9 71 -68 82 -68 3 0 10 -4 15 -9 5 -5 2 -6 -6 -1 -9 5 -12 3 -9
-6 3 -8 14 -14 25 -14 12 0 25 -4 29 -8 5 -4 0 -5 -11 -1 -18 6 -17 4 4 -19
13 -15 27 -24 32 -22 4 3 11 0 15 -6 4 -8 3 -9 -4 -5 -7 4 -12 4 -12 -1 0 -9
71 -68 82 -68 3 0 10 -4 15 -9 5 -5 2 -6 -6 -1 -9 5 -12 3 -9 -6 3 -8 14 -14
25 -14 12 0 25 -4 29 -8 5 -4 0 -5 -11 -1 -18 6 -17 4 4 -19 13 -15 27 -24 32
-22 4 3 11 0 15 -6 4 -8 3 -9 -4 -5 -7 4 -12 4 -12 -1 0 -9 71 -68 82 -68 3 0
10 -4 15 -9 5 -5 2 -6 -6 -1 -9 5 -12 3 -9 -6 3 -8 14 -14 25 -14 12 0 25 -4
29 -8 5 -4 0 -5 -11 -1 -18 6 -17 4 4 -19 13 -15 27 -24 32 -22 4 3 11 0 15
-6 4 -8 3 -9 -4 -5 -7 4 -12 4 -12 -1 0 -9 71 -68 82 -68 3 0 10 -4 15 -9 5
-5 2 -6 -6 -1 -9 5 -12 3 -9 -6 3 -8 14 -14 25 -14 12 0 25 -4 29 -8 5 -4 0
-5 -11 -1 -18 6 -17 4 4 -19 13 -15 27 -24 32 -22 4 3 11 0 15 -6 4 -8 3 -9
-4 -5 -7 4 -12 4 -12 0 0 -10 83 -79 92 -77 4 2 5 -4 1 -13 -5 -13 -2 -15 15
-10 11 4 23 2 27 -3 4 -7 -1 -8 -12 -4 -11 4 -5 -8 17 -32 50 -55 102 -100
111 -98 5 2 6 -4 2 -13 -5 -13 -2 -15 15 -10 11 4 23 2 27 -3 4 -7 -1 -8 -12
-4 -11 4 -5 -8 17 -32 50 -55 102 -100 111 -98 5 2 6 -4 2 -13 -5 -13 -2 -15
15 -10 11 4 23 2 27 -3 4 -7 -1 -8 -12 -4 -11 4 -5 -8 17 -32 51 -55 102 -100
112 -97 4 1 7 -2 6 -8 -4 -13 143 -161 153 -154 5 3 6 -2 2 -12 -5 -13 -2 -15
15 -10 11 4 23 2 27 -3 4 -7 -1 -8 -12 -4 -11 4 -5 -8 17 -32 52 -57 103 -100
113 -97 4 1 6 -1 3 -6 -6 -9 53 -71 67 -71 5 0 12 -3 15 -7 4 -4 1 -4 -5 0
-23 13 -13 -6 19 -35 24 -23 33 -27 40 -17 6 8 7 4 3 -12 -6 -22 -2 -20 35 17
23 23 39 47 35 53 -3 5 -11 7 -17 4 -7 -4 -8 -2 -4 4 5 8 13 9 26 2 19 -10 47
11 36 28 -3 6 1 15 9 22 8 7 13 16 10 20 -3 5 6 7 19 6 27 -3 92 56 81 74 -3
6 -11 7 -17 4 -7 -4 -8 -2 -4 4 5 8 13 9 26 2 19 -10 47 11 36 28 -3 6 1 15 9
22 8 7 13 16 10 20 -3 5 6 7 19 6 27 -3 92 56 81 74 -3 6 -11 7 -17 4 -7 -4
-8 -2 -4 4 5 8 13 9 26 2 19 -10 47 11 36 28 -3 6 1 15 9 22 8 7 13 16 10 20
-3 5 6 7 19 6 27 -3 92 56 81 74 -3 6 -11 7 -17 4 -7 -4 -8 -2 -4 4 5 8 13 9
26 2 19 -10 47 11 36 28 -3 6 1 15 9 22 8 7 13 16 10 20 -3 5 6 7 19 6 27 -3
92 56 81 74 -3 6 -11 7 -17 4 -7 -4 -8 -2 -4 4 5 8 13 9 26 2 19 -10 47 11 36
28 -3 6 1 15 9 22 8 7 13 16 10 20 -3 5 6 7 19 6 27 -3 92 56 81 74 -3 6 -11
7 -17 4 -7 -4 -8 -2 -4 4 5 8 13 9 26 2 19 -10 47 11 36 28 -3 6 1 15 9 22 8
7 13 16 10 20 -3 5 6 7 19 6 27 -3 92 56 81 74 -3 6 -11 7 -17 4 -7 -4 -8 -2
-4 4 5 8 13 9 26 2 19 -10 47 11 36 28 -3 6 1 15 9 22 8 7 13 16 10 20 -3 5 6
7 19 6 27 -3 92 56 81 74 -3 6 -11 7 -17 4 -7 -4 -8 -2 -4 4 5 8 13 9 26 2 19
-10 47 11 36 28 -3 6 1 15 9 22 8 7 13 16 10 20 -3 5 6 7 19 6 27 -3 92 56 81
74 -3 6 -11 7 -17 4 -7 -4 -8 -2 -4 4 5 8 13 9 26 2 19 -10 47 11 36 28 -3 6
1 15 9 22 8 7 13 16 10 20 -3 5 6 7 19 6 27 -3 92 56 81 74 -3 6 -11 7 -17 4
-7 -4 -8 -2 -4 4 5 8 13 9 26 2 19 -10 47 11 36 28 -3 6 1 15 9 22 8 7 13 16
10 20 -3 5 6 7 19 6 27 -3 92 56 81 74 -3 6 -11 7 -17 4 -7 -4 -8 -2 -4 4 5 8
13 9 26 2 22 -12 37 4 34 37 0 12 2 20 6 18 4 -3 13 2 20 11 7 8 18 13 25 10
15 -6 79 60 70 74 -3 6 -11 7 -17 4 -7 -4 -8 -2 -4 4 5 8 13 9 26 2 19 -10 47
11 36 28 -3 6 1 15 9 22 8 7 13 16 10 20 -3 5 6 7 19 6 27 -3 92 56 81 74 -3
6 -11 7 -17 4 -7 -4 -8 -2 -4 4 5 8 13 9 26 2 19 -10 47 11 36 28 -3 6 1 15 9
22 8 7 13 16 10 20 -3 5 6 7 19 6 27 -3 92 56 81 74 -3 6 -11 7 -17 4 -7 -4
-8 -2 -4 4 5 8 13 9 26 2 13 -7 21 -6 29 4 6 7 8 16 4 19 -3 4 1 7 10 7 9 0
17 5 17 11 0 5 -4 8 -9 4 -5 -3 -13 0 -17 6 -4 7 -3 9 3 6 6 -4 16 0 23 9 7 8
18 13 25 10 15 -6 79 60 70 74 -3 6 -11 7 -17 4 -7 -4 -8 -2 -4 4 5 8 13 9 26
2 19 -10 47 11 36 28 -3 6 1 15 9 22 8 7 13 16 10 20 -3 5 6 7 19 6 27 -3 92
56 81 74 -3 6 -11 7 -17 4 -7 -4 -8 -2 -4 4 5 8 13 9 26 2 19 -10 47 11 36 28
-3 6 1 15 9 22 8 7 13 16 10 20 -3 5 6 7 19 6 27 -3 92 56 81 74 -3 6 -11 7
-17 4 -7 -4 -8 -2 -4 4 5 8 13 9 26 2 19 -10 47 11 36 28 -3 6 1 15 9 22 8 7
13 16 10 20 -3 5 6 7 20 5 18 -2 34 7 55 32 17 18 30 35 30 36 0 2 -15 14 -32
27 l-33 23 20 -24 20 -24 -22 19 c-13 10 -20 23 -17 27 6 10 -53 64 -70 64 -6
1 -10 7 -8 13 2 14 -54 67 -72 67 -6 1 -10 7 -8 13 2 14 -54 67 -72 67 -6 1
-10 7 -8 13 3 14 -57 69 -71 64 -5 -1 -6 1 -3 6 7 12 -68 84 -79 75 -4 -5 -5
-3 -1 4 7 13 -60 80 -76 75 -5 -1 -7 1 -4 6 7 12 -68 84 -79 75 -4 -5 -5 -3
-1 4 7 13 -60 80 -76 75 -5 -1 -7 2 -3 7 6 11 -63 77 -77 73 -5 -1 -7 2 -3 7
6 11 -63 77 -77 73 -5 -1 -7 2 -3 7 6 11 -63 77 -77 73 -5 -1 -7 2 -4 7 7 11
-1023 1047 -1036 1044 -4 -2 -7 0 -6 5 4 10 -144 158 -154 155 -4 -2 -7 1 -5
5 1 5 -112 122 -252 261 -193 192 -256 250 -263 239 -7 -9 -8 -8 -4 6 8 25
-57 88 -82 79 -12 -3 -13 -2 -5 4 10 7 5 18 -18 44 -17 18 -28 29 -25 24 2 -6
-4 -17 -16 -24 -16 -10 -19 -10 -13 1 4 7 -184 -178 -418 -411 -234 -234 -423
-429 -420 -434 3 -6 2 -7 -4 -4 -13 8 -266 -247 -256 -258 4 -4 3 -5 -3 -2
-14 8 -117 -96 -107 -108 5 -4 3 -5 -3 -2 -14 8 -167 -146 -157 -158 4 -4 3
-5 -3 -2 -14 8 -167 -146 -157 -158 4 -4 3 -5 -3 -2 -14 8 -167 -146 -157
-158 4 -4 3 -5 -3 -2 -14 8 -167 -146 -157 -158 4 -4 3 -5 -3 -2 -13 8 -117
-96 -107 -107 5 -4 1 -6 -7 -4 -8 2 -14 -3 -12 -10 1 -8 -1 -11 -6 -8 -12 7
-144 -128 -135 -138 4 -4 1 -6 -7 -4 -8 2 -14 -3 -12 -10 1 -8 -1 -11 -6 -8
-12 7 -144 -128 -135 -138 4 -4 1 -6 -7 -4 -8 2 -14 -3 -12 -10 1 -8 -1 -11
-6 -8 -12 7 -144 -128 -135 -138 4 -4 1 -6 -7 -4 -9 2 -14 -3 -12 -12 2 -8 0
-12 -4 -7 -10 9 -65 -43 -58 -55 3 -5 0 -7 -8 -6 -7 2 -12 -4 -10 -12 2 -8 0
-12 -4 -7 -10 9 -65 -43 -58 -55 3 -5 0 -7 -8 -6 -7 2 -12 -4 -10 -12 2 -8 0
-12 -4 -7 -10 9 -65 -43 -58 -55 3 -5 0 -7 -8 -6 -7 2 -12 -4 -10 -12 2 -8 0
-12 -4 -7 -10 9 -65 -43 -58 -55 3 -5 0 -7 -8 -6 -7 2 -12 -4 -10 -12 2 -8 0
-12 -4 -7 -10 9 -65 -43 -58 -55 3 -5 0 -7 -8 -6 -7 2 -12 -4 -10 -12 2 -8 0
-12 -4 -7 -10 9 -65 -43 -58 -55 3 -5 0 -7 -8 -6 -7 2 -12 -4 -10 -12 2 -8 0
-12 -4 -7 -10 9 -65 -43 -58 -55 3 -5 0 -7 -8 -6 -7 2 -12 -4 -10 -12 2 -8 0
-12 -4 -7 -10 9 -65 -43 -58 -55 3 -5 0 -7 -8 -6 -7 2 -12 -3 -11 -9 2 -7 -3
-12 -10 -10 -6 1 -11 -4 -9 -11 1 -8 -2 -11 -6 -8 -12 7 -44 -28 -35 -38 5 -4
1 -6 -7 -4 -9 2 -14 -3 -12 -12 2 -8 0 -12 -4 -7 -10 9 -65 -43 -58 -55 3 -5
0 -7 -8 -6 -7 2 -12 -4 -10 -12 2 -8 0 -12 -4 -7 -10 9 -65 -43 -58 -55 3 -5
0 -7 -8 -6 -7 2 -12 -4 -10 -12 2 -8 0 -12 -4 -7 -10 9 -65 -43 -58 -55 3 -5
0 -7 -8 -6 -7 2 -12 -4 -10 -12 2 -8 0 -12 -4 -7 -10 9 -65 -43 -58 -55 3 -5
0 -7 -8 -6 -7 2 -12 -4 -10 -12 2 -8 0 -12 -4 -7 -10 9 -65 -43 -58 -55 3 -5
0 -7 -8 -6 -7 2 -12 -4 -10 -12 2 -8 0 -12 -4 -7 -10 9 -65 -43 -58 -55 3 -5
0 -7 -8 -6 -7 2 -12 -4 -10 -12 2 -8 0 -12 -4 -7 -10 9 -65 -43 -58 -55 3 -5
0 -7 -8 -6 -7 2 -12 -3 -10 -10 1 -8 -1 -11 -6 -8 -5 3 -19 -6 -31 -20 -19
-22 -23 -23 -37 -9 -9 8 -20 12 -26 9 -6 -4 -8 -2 -5 3 8 13 -27 46 -37 36 -4
-4 -4 -1 -1 8 7 18 -39 64 -54 55 -6 -4 -9 -1 -6 6 7 17 -40 62 -54 54 -6 -4
-9 -1 -5 7 6 17 -21 41 -35 32 -6 -3 -9 0 -6 7 7 19 -50 72 -66 63 -8 -6 -10
-4 -4 4 4 7 -2 22 -16 37 -24 25 -45 33 -33 12 4 -8 3 -10 -2 -5 -5 5 -9 14
-9 20 0 7 -6 12 -14 12 -8 0 -15 8 -17 18 -2 19 -34 48 -44 42 -3 -2 -7 5 -7
16 -3 31 4262 4293 4285 4283 9 -4 24 -6 32 -5 12 1 13 0 1 -7 -17 -12 -4 -35
15 -28 9 3 11 0 7 -12 -3 -9 -2 -14 2 -10 5 5 14 -1 22 -12 8 -11 20 -17 31
-14 13 5 14 4 3 -4 -16 -12 -4 -35 15 -28 9 3 11 0 7 -12 -3 -9 -2 -14 2 -10
5 5 14 -1 22 -12 8 -11 20 -17 31 -14 13 5 14 4 3 -4 -16 -12 -4 -35 15 -28 9
3 11 0 7 -12 -3 -9 -2 -14 2 -10 5 5 14 -1 22 -12 8 -11 20 -17 31 -14 13 5
14 4 3 -4 -16 -12 -4 -35 15 -28 9 3 11 0 7 -12 -3 -9 -2 -14 2 -10 5 5 14 -1
22 -12 8 -11 20 -17 31 -14 13 5 14 4 3 -4 -16 -12 -4 -35 15 -28 9 3 11 0 7
-12 -3 -9 -2 -14 2 -10 5 5 14 -1 22 -12 8 -11 20 -17 31 -14 13 5 14 4 3 -4
-16 -12 -4 -35 15 -28 9 3 11 0 7 -12 -3 -9 -2 -14 2 -10 5 5 14 -1 22 -12 8
-11 20 -17 31 -14 13 5 14 4 3 -4 -16 -12 -4 -35 15 -28 9 3 11 0 7 -12 -3 -9
-2 -14 2 -10 5 5 14 -1 22 -12 8 -11 20 -17 31 -14 13 5 14 4 3 -4 -16 -12 -4
-35 15 -28 9 3 11 0 7 -12 -3 -9 -2 -14 2 -10 5 5 14 -1 22 -12 8 -11 20 -17
31 -14 13 5 14 4 3 -4 -16 -12 -4 -35 15 -28 9 3 11 0 7 -12 -3 -9 -2 -14 2
-10 5 5 14 -1 22 -12 8 -11 20 -17 31 -14 13 5 14 4 3 -4 -16 -12 -4 -35 15
-28 9 3 11 0 7 -12 -3 -9 -2 -14 2 -10 5 5 14 -1 22 -12 8 -11 20 -17 31 -14
13 5 14 4 3 -4 -16 -12 -4 -35 15 -28 9 3 11 0 7 -12 -3 -9 -3 -14 2 -10 4 4
16 -4 27 -17 18 -23 46 -36 34 -16 -7 11 21 8 31 -4 4 -4 3 -5 -3 -2 -7 4 -18
-1 -25 -10 -12 -15 -12 -16 4 -10 15 6 22 -3 15 -18 -6 -9 37 -33 52 -28 12 4
12 3 1 -5 -16 -12 -4 -35 15 -28 9 3 11 0 7 -12 -3 -9 -2 -14 2 -10 5 5 14 -1
22 -12 8 -11 20 -17 31 -14 13 5 14 4 3 -4 -16 -12 -4 -35 15 -28 9 3 11 0 7
-12 -3 -9 -2 -14 2 -10 5 5 14 -1 22 -12 8 -11 20 -17 31 -14 13 5 14 4 3 -4
-16 -12 -4 -35 15 -28 9 3 11 0 7 -12 -3 -9 -2 -14 2 -10 5 5 14 -1 22 -12 8
-11 20 -17 31 -14 13 5 14 4 3 -4 -16 -12 -4 -35 15 -28 9 3 11 0 7 -12 -3 -9
-2 -14 2 -10 5 5 14 -1 22 -12 8 -11 20 -17 31 -14 13 5 14 4 3 -4 -16 -12 -4
-35 15 -28 9 3 11 0 7 -12 -3 -9 -2 -14 2 -10 5 5 14 -1 22 -12 8 -11 20 -17
31 -14 13 5 14 4 3 -4 -16 -12 -4 -35 15 -28 9 3 11 0 7 -11 -4 -11 -2 -14 5
-9 7 4 12 3 12 -3 0 -5 23 -33 50 -60 34 -34 56 -49 68 -45 13 5 14 4 3 -4
-16 -12 -4 -35 15 -28 9 3 11 0 7 -12 -3 -9 -2 -14 2 -10 5 5 14 -1 22 -12 8
-11 20 -17 31 -14 13 5 14 4 3 -4 -16 -12 -4 -35 15 -28 9 3 11 0 7 -12 -3 -9
-2 -14 2 -10 5 5 14 -1 22 -12 8 -11 20 -17 31 -14 13 5 14 4 3 -4 -16 -12 -4
-35 15 -28 9 3 11 0 7 -12 -3 -9 -2 -14 2 -10 5 5 14 -1 22 -12 8 -11 20 -17
31 -14 13 5 14 4 3 -4 -16 -12 -4 -35 15 -28 9 3 11 0 7 -12 -3 -9 -2 -14 2
-10 5 5 14 -1 22 -12 8 -11 20 -17 31 -14 13 5 14 4 3 -4 -16 -12 -4 -35 15
-28 9 3 11 0 7 -12 -3 -9 -2 -14 2 -10 5 5 14 -1 22 -12 8 -11 20 -17 31 -14
13 5 14 4 3 -4 -16 -12 -4 -35 15 -28 9 3 11 0 7 -12 -3 -9 -2 -14 2 -10 5 5
14 0 21 -11 8 -11 23 -17 39 -16 14 2 27 -1 30 -5 3 -5 -6 -7 -21 -4 -18 3
-25 1 -21 -8 2 -7 11 -12 20 -12 10 1 13 -4 10 -15 -4 -9 -2 -13 2 -9 5 5 14
-1 22 -12 8 -11 20 -17 31 -14 13 5 14 4 3 -4 -16 -12 -4 -35 15 -28 9 3 11 0
7 -12 -3 -9 -2 -14 2 -10 5 5 14 -1 22 -12 8 -11 20 -17 31 -14 13 5 14 4 3
-4 -16 -12 -4 -35 15 -28 9 3 11 0 7 -12 -3 -9 -3 -14 2 -10 4 4 16 -4 27 -17
20 -26 45 -35 32 -12 -4 6 -4 9 1 5 4 -4 13 -3 20 2 8 7 12 5 12 -5 0 -8 -4
-12 -8 -10 -3 3 -12 -2 -18 -9 -10 -11 -8 -16 6 -20 10 -4 30 -23 45 -42 21
-28 24 -39 15 -49 -7 -7 -16 -12 -22 -12 -5 1 -10 -5 -10 -13 0 -8 -7 -14 -14
-12 -7 1 -10 -2 -7 -7 7 -11 -19 -33 -28 -23 -4 4 -6 0 -4 -8 2 -8 -3 -14 -9
-15 -7 0 -13 -4 -14 -10 -1 -16 -41 -55 -51 -49 -5 3 -7 0 -6 -7 2 -7 -4 -13
-12 -14 -8 0 -15 -7 -15 -15 -1 -8 -7 -14 -14 -12 -7 1 -10 -2 -7 -7 6 -10
-18 -34 -26 -26 -3 3 -5 -9 -4 -27 1 -22 7 -33 16 -33 8 -1 14 -7 12 -14 -1
-7 2 -10 8 -6 6 3 14 -4 19 -17 4 -13 12 -23 17 -23 5 0 8 -4 6 -8 -1 -5 1 -6
6 -3 5 3 20 -6 33 -21 13 -14 17 -23 9 -18 -8 4 -4 -3 10 -16 14 -14 27 -24
29 -22 2 2 11 -3 20 -11 14 -12 19 -10 40 18 l25 31 -30 -25 c-25 -21 -24 -19
5 13 35 37 48 47 35 25 -4 -7 -3 -8 4 -4 7 4 12 13 12 20 0 7 9 21 20 31 12
10 18 25 15 33 -4 12 -3 13 10 2 12 -10 18 -10 30 0 8 7 12 17 8 23 -3 5 -1 7
4 4 6 -4 19 3 29 16 19 21 19 21 -1 7 -19 -14 -19 -14 -6 3 8 10 21 15 29 12
10 -3 12 0 8 10 -3 8 0 14 7 12 7 -1 11 4 9 11 -1 8 2 11 6 8 5 -3 18 4 28 17
19 21 19 21 -1 7 -18 -14 -19 -14 -7 2 8 10 10 23 6 30 -6 10 -3 9 9 -1 14
-11 20 -11 32 -1 8 7 12 17 8 23 -3 5 -1 7 4 4 6 -4 19 3 29 16 19 21 19 21
-1 7 -19 -14 -19 -14 -6 3 8 10 21 15 29 12 10 -3 12 0 8 10 -3 8 0 14 7 12 7
-1 11 4 9 11 -1 6 4 11 10 10 7 -2 12 3 10 10 -1 8 2 11 7 7 12 -7 33 29 23
40 -4 5 -2 5 5 1 6 -3 14 -2 17 3 6 9 -22 26 -37 22 -5 -1 -6 2 -3 7 7 12 -68
84 -79 75 -4 -5 -5 -3 -2 3 8 14 -17 37 -28 26 -5 -4 -5 -2 -2 4 6 11 -59 82
-69 76 -3 -2 -9 0 -12 4 -4 4 0 4 8 -1 8 -4 2 6 -14 23 -16 17 -34 29 -39 25
-6 -3 -7 -1 -4 4 8 13 -17 36 -28 25 -5 -4 -5 -2 -2 4 6 11 -59 82 -69 76 -3
-2 -9 0 -12 4 -4 4 0 4 8 -1 8 -4 2 6 -14 23 -16 17 -34 29 -39 25 -6 -3 -7
-1 -4 4 8 13 -17 36 -28 25 -5 -4 -5 -2 -2 4 6 11 -51 73 -66 73 -5 0 -12 3
-15 7 -4 4 0 4 8 -1 8 -4 2 6 -14 23 -16 17 -34 29 -39 25 -6 -3 -7 -1 -4 4 8
13 -17 36 -28 25 -5 -4 -5 -2 -2 4 6 11 -59 82 -69 76 -3 -2 -9 0 -12 4 -4 4
0 4 8 -1 8 -4 2 6 -14 23 -16 17 -34 29 -39 25 -6 -3 -7 -1 -4 4 8 13 -17 36
-28 25 -5 -4 -5 -2 -2 4 6 11 -61 84 -68 74 -2 -3 -7 -1 -12 4 -5 6 -2 6 7 1
8 -4 2 6 -14 23 -16 17 -34 29 -39 25 -6 -3 -7 -1 -4 4 8 13 -17 36 -28 25 -5
-4 -5 -2 -2 4 6 11 -61 84 -68 74 -2 -3 -7 -1 -12 4 -5 6 -2 6 7 1 8 -4 2 6
-14 23 -16 17 -34 29 -39 25 -6 -3 -7 -1 -4 4 8 13 -17 36 -28 25 -5 -4 -5 -2
-2 4 6 11 -52 75 -65 71 -3 -1 -10 2 -15 7 -5 6 -2 6 7 1 8 -4 2 6 -14 23 -16
17 -34 29 -39 25 -6 -3 -7 -1 -4 4 8 13 -17 36 -28 25 -5 -4 -5 -2 -2 4 6 11
-52 75 -65 71 -3 -1 -10 2 -15 7 -5 6 -2 6 7 1 8 -4 2 6 -14 23 -16 17 -34 29
-39 25 -6 -3 -7 -1 -4 4 8 13 -17 36 -28 25 -5 -4 -5 -2 -2 4 6 11 -58 81 -71
77 -4 -1 -9 1 -12 4 -3 4 2 3 10 -2 8 -4 2 6 -14 23 -16 17 -34 28 -40 25 -6
-3 -8 -3 -4 2 11 11 -12 36 -25 28 -5 -3 -7 -2 -4 4 6 10 -61 82 -68 73 -2 -3
-7 -1 -12 4 -5 6 -2 6 7 1 8 -4 2 6 -14 23 -16 17 -34 28 -40 25 -6 -3 -8 -3
-4 2 11 11 -12 36 -25 28 -5 -3 -7 -2 -4 4 6 10 -52 74 -65 70 -3 -1 -10 2
-15 7 -5 6 -2 6 7 1 8 -4 2 6 -14 23 -16 17 -34 28 -40 25 -6 -3 -8 -3 -4 2
11 11 -12 36 -25 28 -5 -3 -7 -2 -4 4 6 10 -52 74 -65 70 -3 -1 -10 2 -15 7
-5 6 -2 6 7 1 8 -4 2 6 -14 23 -16 17 -34 28 -40 25 -6 -3 -8 -3 -4 2 11 11
-12 36 -26 28 -6 -3 -8 -2 -3 2 9 10 -52 77 -64 69 -4 -2 -11 1 -15 7 -5 8 -3
9 7 4 8 -4 -1 8 -20 28 -19 20 -39 33 -44 30 -6 -3 -7 -2 -4 4 8 13 -63 84
-76 76 -6 -3 -7 -2 -4 4 8 13 -67 86 -78 76 -4 -5 -5 -3 -2 3 8 14 -62 86 -76
77 -6 -3 -7 -2 -4 4 8 13 -67 86 -78 76 -4 -5 -5 -3 -2 3 8 14 -62 86 -76 77
-6 -3 -7 -2 -4 4 8 13 -67 86 -78 76 -4 -5 -5 -3 -2 3 8 13 -62 86 -75 78 -5
-3 -7 0 -6 7 2 6 -3 14 -11 17 -10 3 -12 0 -7 -13 5 -14 4 -16 -7 -6 -18 14
-43 -11 -31 -30 5 -9 2 -10 -9 -6 -22 8 -32 -10 -15 -31 12 -15 11 -16 -4 -4
-15 12 -20 11 -39 -6 -11 -11 -18 -26 -14 -32 4 -7 1 -10 -10 -8 -10 2 -20 -3
-23 -11 -3 -9 0 -11 8 -6 9 5 11 4 6 -4 -4 -6 -12 -9 -17 -6 -13 9 -52 -31
-44 -45 4 -7 1 -10 -10 -8 -10 2 -20 -3 -23 -11 -3 -9 0 -11 8 -6 9 5 11 4 6
-4 -4 -6 -12 -9 -17 -6 -13 9 -52 -31 -44 -45 4 -7 1 -10 -10 -8 -10 2 -20 -3
-23 -11 -3 -9 0 -11 8 -6 9 5 11 4 6 -4 -4 -6 -12 -9 -17 -6 -14 9 -52 -32
-43 -46 5 -8 2 -11 -8 -7 -19 8 -82 -57 -72 -74 5 -7 2 -9 -8 -6 -19 8 -82
-57 -72 -74 5 -7 2 -9 -8 -6 -19 8 -82 -57 -72 -74 5 -7 2 -9 -8 -6 -19 8 -82
-57 -72 -74 5 -7 2 -9 -8 -6 -19 8 -82 -57 -72 -74 5 -7 2 -9 -8 -6 -19 8 -82
-57 -72 -74 5 -7 2 -9 -8 -6 -19 8 -82 -57 -72 -74 5 -7 2 -9 -8 -6 -19 8 -82
-57 -72 -74 5 -7 2 -9 -8 -6 -19 8 -82 -57 -72 -74 5 -7 2 -9 -8 -6 -19 8 -82
-57 -72 -74 5 -7 2 -9 -8 -6 -19 8 -82 -57 -72 -74 5 -7 2 -9 -8 -6 -18 8 -82
-57 -73 -73 4 -6 0 -9 -10 -7 -10 2 -20 -3 -23 -11 -3 -9 0 -11 8 -6 9 5 11 4
6 -4 -4 -6 -12 -9 -17 -6 -14 9 -52 -32 -43 -46 5 -8 2 -11 -8 -7 -19 8 -82
-57 -72 -74 5 -7 2 -9 -8 -6 -19 8 -82 -57 -72 -74 5 -7 2 -9 -8 -6 -19 8 -82
-57 -72 -74 5 -7 2 -9 -8 -6 -19 8 -82 -57 -72 -74 5 -7 2 -9 -8 -6 -19 8 -82
-57 -72 -74 5 -7 2 -9 -8 -6 -18 8 -82 -57 -73 -73 4 -6 0 -9 -10 -7 -10 2
-20 -3 -23 -11 -3 -9 0 -11 8 -6 9 5 11 4 6 -4 -4 -6 -12 -9 -17 -6 -14 9 -52
-32 -43 -46 5 -8 2 -11 -8 -7 -19 8 -82 -57 -72 -74 5 -7 2 -9 -8 -6 -19 8
-82 -57 -72 -74 5 -7 2 -9 -8 -6 -19 8 -82 -57 -72 -74 5 -7 2 -9 -8 -6 -19 8
-82 -57 -72 -74 5 -7 2 -9 -8 -6 -19 8 -82 -57 -72 -74 5 -7 2 -9 -8 -6 -19 8
-82 -57 -72 -74 5 -7 2 -9 -8 -6 -19 8 -82 -57 -72 -74 5 -8 2 -9 -9 -5 -11 4
-22 -1 -29 -13 -7 -11 -17 -20 -21 -20 -5 0 -46 38 -91 85 -74 77 -110 106
-90 73 5 -9 2 -9 -9 1 -18 15 -23 26 -7 16 28 -17 2 16 -64 81 -68 69 -98 91
-80 62 5 -9 2 -9 -9 1 -18 15 -23 26 -7 16 28 -17 2 16 -64 81 -68 69 -98 91
-80 62 5 -9 2 -9 -9 1 -18 15 -23 26 -7 16 28 -17 2 16 -64 81 -68 69 -98 91
-80 62 5 -9 2 -9 -9 1 -18 15 -23 26 -7 16 28 -17 2 16 -64 81 -65 66 -98 92
-81 64 10 -16 -1 -11 -16 7 -10 11 -10 14 -1 9 30 -18 7 12 -62 81 -47 47 -79
72 -87 67 -8 -4 -9 -3 -5 4 8 13 -77 105 -88 95 -3 -3 -6 -1 -6 5 0 20 -43 63
-58 57 -7 -2 -10 -1 -7 5 6 10 -54 80 -70 80 -5 0 -3 -5 5 -11 13 -9 13 -10 0
-6 -8 2 -14 11 -12 21 4 21 -12 21 -29 -1 -12 -14 -12 -16 0 -8 10 5 12 4 7
-4 -4 -6 -11 -9 -15 -7 -8 6 -150 -133 -152 -149 0 -5 -4 -9 -8 -8 -9 2 -149
-137 -153 -152 -2 -5 -6 -9 -9 -8 -7 2 -148 -139 -149 -149 0 -5 -3 -8 -7 -8
-11 -1 -152 -142 -150 -149 1 -3 -1 -6 -5 -6 -10 0 -157 -147 -155 -154 1 -3
-1 -6 -5 -6 -10 0 -157 -147 -155 -154 1 -3 -2 -7 -8 -9 -18 -5 -154 -145
-152 -156 1 -6 -3 -10 -9 -9 -11 2 -153 -136 -154 -149 0 -5 -2 -7 -4 -5 -10
5 -75 -67 -69 -76 3 -6 2 -7 -4 -4 -9 6 -82 -60 -83 -75 0 -5 -3 -8 -7 -8 -16
-1 -72 -64 -66 -73 3 -6 2 -7 -4 -4 -5 3 -30 -15 -54 -40 -24 -25 -38 -42 -30
-38 10 5 12 4 7 -4 -4 -6 -11 -9 -15 -7 -4 3 -27 -15 -51 -39 l-44 -45 44 -45
c24 -24 47 -42 51 -39 4 2 11 -1 15 -7 5 -8 3 -9 -7 -4 -8 5 -6 -1 4 -13 11
-11 24 -19 30 -18 7 2 8 1 4 -2 -5 -2 2 -15 14 -28 12 -13 25 -21 30 -19 4 3
11 0 15 -6 5 -8 3 -10 -7 -4 -8 4 -6 -1 4 -11 18 -19 19 -18 52 20 19 21 32
42 29 47 -3 5 -2 9 3 8 20 -3 34 2 28 11 -4 6 -10 8 -15 5 -5 -3 -11 -1 -14 4
-4 5 -2 12 3 15 5 4 12 2 16 -4 3 -5 11 -10 16 -10 6 0 7 4 4 10 -3 5 0 7 9 4
16 -6 40 28 28 41 -4 5 -2 5 5 2 14 -8 46 21 38 34 -4 5 1 6 9 3 16 -6 40 29
28 41 -4 3 -2 6 3 5 21 -5 36 0 30 10 -4 6 -10 8 -15 5 -5 -3 -11 -1 -14 4 -4
5 -2 12 3 15 5 4 12 2 16 -4 3 -5 11 -10 16 -10 6 0 7 4 4 10 -3 5 0 7 9 4 16
-6 40 28 28 41 -4 5 -2 5 5 2 14 -8 46 21 38 34 -4 5 1 6 9 3 16 -6 40 29 28
41 -4 3 -2 6 3 5 21 -5 36 0 30 10 -4 6 -10 8 -15 5 -5 -3 -11 -1 -14 4 -4 5
-2 12 3 15 5 4 12 2 16 -4 3 -5 11 -10 16 -10 6 0 7 4 4 10 -3 5 0 7 9 4 16
-6 40 28 28 41 -4 5 -2 5 5 2 14 -8 46 21 38 34 -4 5 0 7 7 4 8 -3 216 198
506 488 l493 493 98 -98 c90 -90 124 -118 105 -85 -5 8 -2 8 9 -2 18 -15 23
-26 7 -16 -28 17 -2 -16 64 -81 68 -69 98 -91 80 -61 -5 8 -2 8 9 -2 18 -15
23 -26 7 -16 -28 17 -2 -16 64 -81 68 -69 98 -91 80 -61 -5 8 -2 8 9 -2 18
-15 23 -26 7 -16 -5 3 -10 3 -10 -1 0 -12 248 -253 254 -247 3 4 6 1 6 -5 0
-20 43 -63 58 -57 7 2 10 0 7 -5 -7 -12 79 -102 89 -93 3 3 6 1 6 -5 0 -7 10
-23 21 -37 16 -17 26 -22 38 -15 29 15 18 -37 -13 -61 -16 -12 -25 -27 -22
-36 4 -9 0 -13 -11 -11 -9 2 -18 -3 -21 -11 -3 -9 0 -11 8 -6 9 5 11 4 6 -4
-4 -6 -12 -9 -17 -6 -13 9 -52 -31 -44 -45 4 -7 1 -10 -10 -8 -10 2 -20 -3
-23 -11 -3 -9 0 -11 8 -6 9 5 11 4 6 -4 -4 -6 -12 -9 -17 -6 -13 9 -52 -31
-44 -45 4 -7 1 -10 -10 -8 -10 2 -20 -3 -23 -11 -3 -9 0 -11 8 -6 9 5 11 4 6
-4 -4 -6 -12 -9 -17 -6 -13 9 -52 -31 -44 -45 4 -7 1 -10 -10 -8 -10 2 -20 -3
-23 -11 -3 -9 0 -11 8 -6 9 5 11 4 6 -4 -4 -6 -12 -9 -17 -6 -13 9 -52 -31
-44 -45 4 -7 1 -10 -10 -8 -10 2 -20 -3 -23 -11 -3 -9 0 -11 8 -6 9 5 11 4 6
-4 -4 -6 -12 -9 -17 -6 -13 9 -52 -31 -44 -45 4 -7 1 -10 -10 -8 -10 2 -20 -3
-23 -11 -3 -9 0 -11 8 -6 8 5 11 4 6 -3 -4 -6 -12 -9 -19 -6 -18 6 -51 -32
-41 -47 5 -8 2 -11 -8 -7 -19 8 -82 -57 -72 -74 5 -7 2 -9 -8 -6 -19 8 -82
-57 -72 -74 5 -7 2 -9 -8 -6 -19 8 -82 -57 -72 -74 5 -7 2 -9 -8 -6 -18 8 -82
-57 -73 -73 4 -6 0 -9 -10 -7 -10 2 -20 -3 -23 -11 -3 -9 0 -11 8 -6 9 5 11 4
6 -4 -4 -6 -12 -9 -17 -6 -14 9 -52 -32 -43 -46 5 -9 2 -11 -8 -6 -21 7 -52
-25 -38 -39 7 -7 3 -10 -12 -10 -16 1 -23 -4 -22 -17 1 -11 -4 -16 -14 -15 -8
2 -17 -3 -20 -11 -3 -9 0 -11 8 -6 9 5 11 4 6 -4 -4 -6 -12 -9 -17 -6 -14 9
-52 -32 -43 -46 5 -8 2 -11 -8 -7 -19 8 -82 -57 -72 -74 5 -7 2 -9 -8 -6 -19
8 -82 -57 -72 -74 5 -7 2 -9 -8 -6 -19 8 -82 -57 -72 -74 5 -7 2 -9 -8 -6 -19
8 -82 -57 -72 -74 5 -7 2 -9 -8 -6 -19 8 -82 -57 -72 -74 5 -7 2 -9 -8 -6 -19
8 -82 -57 -72 -74 5 -7 2 -9 -8 -6 -19 8 -82 -57 -72 -74 5 -8 2 -9 -10 -5
-13 5 -17 3 -13 -7 4 -11 1 -13 -10 -9 -11 4 -14 2 -9 -5 13 -22 0 -12 -42 29
-23 22 -46 37 -52 34 -6 -4 -9 -2 -8 3 5 15 -62 83 -74 76 -6 -4 -8 -3 -5 3 8
13 -27 46 -38 36 -4 -5 -5 -3 -2 4 9 14 -21 46 -34 37 -5 -3 -8 -1 -7 4 4 14
-62 83 -73 77 -5 -4 -8 -2 -7 3 4 14 -62 83 -73 77 -5 -4 -8 -2 -7 3 5 15 -62
83 -74 76 -6 -4 -8 -3 -5 3 8 13 -27 46 -38 36 -4 -5 -5 -3 -2 4 9 14 -21 46
-34 37 -5 -3 -8 -1 -7 4 4 14 -62 83 -73 77 -5 -4 -8 -2 -7 3 4 14 -62 83 -73
77 -5 -4 -8 -2 -7 3 4 14 -62 83 -73 77 -5 -4 -8 -2 -7 3 4 14 -62 83 -73 77
-5 -4 -8 -2 -7 3 5 15 -62 83 -74 76 -6 -4 -8 -3 -5 3 8 13 -27 46 -38 36 -4
-5 -5 -3 -2 4 9 14 -21 46 -34 37 -5 -3 -8 -1 -7 4 5 15 -62 83 -74 76 -6 -4
-8 -3 -5 3 8 13 -27 46 -38 36 -4 -5 -5 -3 -2 3 8 14 -102 126 -116 117 -5 -3
-7 -1 -4 4 8 13 -27 46 -38 36 -4 -5 -5 -3 -2 4 9 14 -21 46 -34 37 -5 -3 -8
-1 -7 4 5 15 -62 83 -74 76 -6 -4 -8 -3 -5 3 8 13 -27 46 -38 36 -4 -5 -5 -3
-2 4 9 14 -21 46 -34 37 -5 -3 -8 -1 -7 4 5 15 -62 83 -74 76 -6 -4 -8 -3 -5
3 8 13 -27 46 -38 36 -4 -5 -5 -3 -2 3 9 15 -32 66 -45 58 -6 -4 -8 -2 -4 4 3
6 2 13 -3 17 -12 7 -3 35 11 35 6 0 5 -6 -2 -15 -21 -25 3 -17 33 11 18 17 26
32 22 43 -5 13 -4 13 6 4 10 -10 20 -5 47 23 22 22 32 41 28 51 -5 13 -4 14 9
3 18 -15 20 0 3 20 -11 12 -10 12 6 0 19 -15 29 -7 78 57 7 10 22 23 33 29 11
6 21 17 21 25 1 8 2 21 3 29 1 13 2 13 11 0 5 -8 12 -11 16 -7 4 3 1 15 -7 24
-11 15 -11 16 1 6 10 -10 19 -8 42 8 15 11 28 26 28 32 1 7 19 24 40 39 22 15
40 35 40 43 0 8 5 15 10 15 6 0 28 19 50 41 39 41 40 42 23 63 l-18 21 23 -19
c22 -19 22 -19 47 4 14 13 25 28 25 34 1 6 19 23 40 38 22 15 40 33 40 40 1 7
19 25 40 40 22 15 40 35 40 43 0 8 4 15 9 15 12 0 151 135 151 147 1 4 19 20
40 35 22 15 40 33 40 40 1 7 19 25 40 40 22 15 40 33 40 40 1 7 19 25 40 40
22 15 40 33 40 40 1 7 19 25 40 40 22 15 40 33 40 40 1 7 19 25 40 40 22 15
40 35 40 43 0 8 4 15 8 15 11 0 152 135 152 146 1 5 19 21 40 36 22 15 40 33
40 40 1 7 19 25 40 40 22 15 40 33 40 40 1 7 19 25 40 40 22 15 40 35 40 43 0
8 4 15 9 15 6 0 144 134 308 298 296 296 323 318 350 287 5 -4 2 -5 -4 -1 -24
14 -13 -5 31 -51 24 -25 48 -43 54 -39 5 3 16 -2 23 -11 10 -12 10 -14 2 -9
-22 13 -14 -3 19 -40 18 -19 38 -32 45 -29 8 2 11 0 8 -5 -8 -13 56 -82 72
-76 7 3 15 0 19 -6 4 -7 3 -8 -4 -4 -21 13 -13 -3 17 -34 30 -32 52 -41 30
-12 -13 15 -12 16 3 3 10 -7 15 -18 12 -23 -9 -14 998 -1019 1014 -1013 7 3
11 1 7 -4 -8 -13 24 -42 38 -34 7 3 9 3 5 -2 -12 -13 12 -47 28 -41 8 3 12 2
9 -4 -6 -10 33 -50 49 -50 6 0 17 9 24 21 8 12 9 18 3 14 -17 -10 -13 1 6 16
11 10 14 10 9 2 -20 -35 30 6 64 52 15 20 14 20 -10 0 l-25 -20 24 28 c24 27
38 36 26 17 -3 -5 -3 -10 1 -10 13 0 64 63 58 71 -3 5 3 9 13 9 12 0 0 18 -42
60 -32 32 -63 56 -69 53 -6 -3 -8 -3 -4 2 10 11 -10 35 -25 31 -7 -1 -8 -1 -4
2 5 2 -2 15 -14 28 -12 13 -26 21 -32 17 -6 -3 -7 -2 -4 4 7 11 -66 86 -76 78
-4 -3 -5 -2 -2 2 7 9 -15 32 -28 29 -7 -1 -8 -1 -4 2 5 2 -2 15 -14 28 -12 13
-26 21 -32 17 -6 -3 -7 -2 -4 4 7 11 -66 86 -76 78 -4 -3 -5 -2 -2 2 7 9 -15
32 -28 29 -7 -1 -8 -1 -4 2 5 2 -2 15 -14 28 -12 13 -26 21 -32 17 -6 -3 -7
-2 -4 4 7 11 -66 86 -76 78 -4 -3 -5 -2 -2 2 7 9 -15 32 -28 29 -7 -1 -8 -1
-4 2 5 2 -2 15 -14 28 -12 13 -26 21 -32 17 -6 -3 -7 -2 -4 4 7 11 -66 86 -76
78 -4 -3 -5 -2 -2 2 7 9 -15 32 -28 29 -7 -1 -8 -1 -4 2 5 2 -2 15 -14 28 -12
13 -26 21 -32 17 -6 -3 -7 -2 -4 4 7 11 -66 86 -76 78 -4 -3 -5 -2 -2 2 7 9
-15 32 -28 29 -7 -1 -8 -1 -4 2 5 2 -2 15 -14 28 -12 13 -26 21 -32 17 -6 -3
-7 -2 -4 4 7 11 -66 86 -76 78 -4 -3 -5 -2 -2 2 7 9 -15 32 -28 29 -7 -1 -8
-1 -4 2 5 2 -2 15 -14 28 -12 13 -26 21 -32 17 -6 -3 -7 -2 -4 4 7 11 -66 86
-76 78 -4 -3 -5 -2 -2 2 8 10 -67 83 -78 76 -6 -3 -7 -2 -4 4 7 11 -66 86 -76
78 -4 -3 -5 -2 -2 2 9 12 -16 32 -33 26 -12 -3 -13 -2 -4 4 10 7 8 14 -9 29
-12 10 -24 18 -28 18 -3 -1 -5 1 -4 5 2 9 -138 150 -149 151 -5 0 -8 3 -8 8
-1 15 -64 71 -73 65 -6 -3 -7 -1 -3 5 10 16 -10 24 -23 8z m3869 -61 c-6 -8
-8 -20 -4 -27 5 -10 4 -10 -6 -1 -11 10 -11 15 0 28 7 8 15 15 17 15 3 0 0 -7
-7 -15z m27 -20 c0 -8 -4 -12 -9 -9 -5 3 -6 10 -3 15 9 13 12 11 12 -6z
m-3752 -45 c3 -5 1 -10 -4 -10 -6 0 -11 5 -11 10 0 6 2 10 4 10 3 0 8 -4 11
-10z m3819 -9 c14 -15 15 -21 4 -27 -7 -4 -10 -3 -5 1 4 5 0 17 -10 27 -9 10
-14 18 -11 18 3 0 13 -9 22 -19z m-3779 -30 c3 -5 2 -12 -3 -15 -5 -3 -9 1 -9
9 0 17 3 19 12 6z m3855 -45 c0 -2 -8 -10 -17 -17 -16 -13 -17 -12 -4 4 13 16
21 21 21 13z m17 -31 c0 -8 -4 -12 -9 -9 -5 3 -6 10 -3 15 9 13 12 11 12 -6z
m67 -54 c14 -15 15 -21 4 -27 -7 -4 -10 -3 -5 1 4 5 0 17 -10 27 -9 10 -14 18
-11 18 3 0 13 -9 22 -19z m76 -75 c0 -2 -8 -10 -17 -17 -16 -13 -17 -12 -4 4
13 16 21 21 21 13z m17 -31 c0 -8 -4 -12 -9 -9 -5 3 -6 10 -3 15 9 13 12 11
12 -6z m67 -54 c14 -15 15 -21 4 -27 -7 -4 -10 -3 -5 1 4 5 0 17 -10 27 -9 10
-14 18 -11 18 3 0 13 -9 22 -19z m76 -75 c0 -2 -8 -10 -17 -17 -16 -13 -17
-12 -4 4 13 16 21 21 21 13z m17 -31 c0 -8 -4 -12 -9 -9 -5 3 -6 10 -3 15 9
13 12 11 12 -6z m67 -54 c12 -13 14 -21 6 -26 -6 -4 -9 -1 -8 7 2 7 -2 12 -8
11 -6 -1 -11 5 -11 13 0 18 0 18 21 -5z m172 -162 c3 -6 1 -16 -6 -22 -10 -9
-11 -9 -5 2 4 8 2 17 -6 22 -9 6 -10 9 -2 9 6 0 15 -5 19 -11z m160 -160 c3
-6 1 -16 -6 -22 -10 -9 -11 -9 -5 2 4 8 2 17 -6 22 -9 6 -10 9 -2 9 6 0 15 -5
19 -11z m-5461 -128 c3 -5 2 -12 -3 -15 -5 -3 -9 1 -9 9 0 17 3 19 12 6z
m5621 -32 c3 -6 1 -16 -6 -22 -10 -9 -11 -9 -5 2 4 8 2 17 -6 22 -9 6 -10 9
-2 9 6 0 15 -5 19 -11z m-5708 -69 c-7 -10 -14 -17 -17 -15 -4 4 18 35 25 35
2 0 -1 -9 -8 -20z m-73 -59 c3 -5 2 -12 -3 -15 -5 -3 -9 1 -9 9 0 17 3 19 12
6z m5941 -32 c3 -6 1 -16 -6 -22 -10 -9 -11 -9 -5 2 4 8 2 17 -6 22 -9 6 -10
9 -2 9 6 0 15 -5 19 -11z m-6101 -128 c3 -5 2 -12 -3 -15 -5 -3 -9 1 -9 9 0
17 3 19 12 6z m1039 -17 c3 -8 2 -12 -4 -9 -6 3 -10 10 -10 16 0 14 7 11 14
-7z m5222 -15 c3 -6 1 -16 -6 -22 -10 -9 -11 -9 -5 2 4 8 2 17 -6 22 -9 6 -10
9 -2 9 6 0 15 -5 19 -11z m-1486 -2 c0 -2 -12 -14 -27 -28 l-28 -24 24 28 c23
25 31 32 31 24z m-3633 -59 c-3 -8 -6 -5 -6 6 -1 11 2 17 5 13 3 -3 4 -12 1
-19z m-1229 -8 c-7 -10 -14 -17 -17 -15 -4 4 18 35 25 35 2 0 -1 -9 -8 -20z
m1207 0 c3 -5 1 -10 -4 -10 -6 0 -11 5 -11 10 0 6 2 10 4 10 3 0 8 -4 11 -10z
m3575 -13 c0 -2 -10 -12 -22 -23 l-23 -19 19 23 c18 21 26 27 26 19z m-4855
-46 c3 -5 2 -12 -3 -15 -5 -3 -9 1 -9 9 0 17 3 19 12 6z m1359 -17 c3 -8 2
-12 -4 -9 -6 3 -10 10 -10 16 0 14 7 11 14 -7z m5222 -15 c3 -6 1 -16 -6 -22
-10 -9 -11 -9 -5 2 4 8 2 17 -6 22 -9 6 -10 9 -2 9 6 0 15 -5 19 -11z m-1806
-2 c0 -2 -12 -14 -27 -28 l-28 -24 24 28 c23 25 31 32 31 24z m-3313 -59 c-3
-8 -6 -5 -6 6 -1 11 2 17 5 13 3 -3 4 -12 1 -19z m-1549 -8 c-7 -10 -14 -17
-17 -15 -4 4 18 35 25 35 2 0 -1 -9 -8 -20z m1527 0 c3 -5 1 -10 -4 -10 -6 0
-11 5 -11 10 0 6 2 10 4 10 3 0 8 -4 11 -10z m3255 -13 c0 -2 -10 -12 -22 -23
l-23 -19 19 23 c18 21 26 27 26 19z m-1819 -34 c13 -16 12 -17 -3 -4 -10 7
-18 15 -18 17 0 8 8 3 21 -13z m-3036 -12 c3 -5 2 -12 -3 -15 -5 -3 -9 1 -9 9
0 17 3 19 12 6z m1679 -17 c3 -8 2 -12 -4 -9 -6 3 -10 10 -10 16 0 14 7 11 14
-7z m3106 -7 c0 -2 -12 -14 -27 -28 l-28 -24 24 28 c23 25 31 32 31 24z m2116
-8 c3 -6 1 -16 -6 -22 -10 -9 -11 -9 -5 2 4 8 2 17 -6 22 -9 6 -10 9 -2 9 6 0
15 -5 19 -11z m-5596 -42 c0 -2 -12 -14 -27 -28 l-28 -24 24 28 c23 25 31 32
31 24z m1464 -18 c-3 -5 -10 -7 -15 -3 -5 3 -7 10 -3 15 3 5 10 7 15 3 5 -3 7
-10 3 -15z m-2856 -9 c-7 -10 -14 -17 -17 -15 -4 4 18 35 25 35 2 0 -1 -9 -8
-20z m1570 -35 c-3 -3 -9 2 -12 12 -6 14 -5 15 5 6 7 -7 10 -15 7 -18z m3212
22 c0 -2 -10 -12 -22 -23 l-23 -19 19 23 c18 21 26 27 26 19z m-4856 -58 c-3
-5 -10 -7 -15 -3 -5 3 -7 10 -3 15 3 5 10 7 15 3 5 -3 7 -10 3 -15z m1386 18
c0 -2 -10 -12 -22 -23 l-23 -19 19 23 c18 21 26 27 26 19z m295 -7 c3 -5 1
-10 -4 -10 -6 0 -11 5 -11 10 0 6 2 10 4 10 3 0 8 -4 11 -10z m1349 -2 c-2 -3
-13 -6 -24 -5 -24 2 -18 13 9 13 11 0 18 -4 15 -8z m3821 0 c5 4 5 1 1 -6 -6
-10 -11 -10 -22 -1 -8 6 -14 14 -14 16 0 3 6 0 13 -6 8 -6 18 -7 22 -3z
m-4851 -14 c3 -8 2 -12 -4 -9 -6 3 -10 10 -10 16 0 14 7 11 14 -7z m2786 -7
c0 -2 -12 -14 -27 -28 l-28 -24 24 28 c23 25 31 32 31 24z m2436 -8 c3 -6 1
-16 -6 -22 -10 -9 -11 -9 -5 2 4 8 2 17 -6 22 -9 6 -10 9 -2 9 6 0 15 -5 19
-11z m-5916 -42 c0 -2 -12 -14 -27 -28 l-28 -24 24 28 c23 25 31 32 31 24z
m-1392 -27 c-7 -10 -14 -17 -17 -15 -4 4 18 35 25 35 2 0 -1 -9 -8 -20z m1890
-35 c-3 -3 -9 2 -12 12 -6 14 -5 15 5 6 7 -7 10 -15 7 -18z m2892 22 c0 -2
-10 -12 -22 -23 l-23 -19 19 23 c18 21 26 27 26 19z m-4855 -46 c3 -5 2 -12
-3 -15 -5 -3 -9 1 -9 9 0 17 3 19 12 6z m1385 6 c0 -2 -10 -12 -22 -23 l-23
-19 19 23 c18 21 26 27 26 19z m934 -23 c3 -8 2 -12 -4 -9 -6 3 -10 10 -10 16
0 14 7 11 14 -7z m2466 -7 c0 -2 -12 -14 -27 -28 l-28 -24 24 28 c23 25 31 32
31 24z m2756 -8 c3 -6 1 -16 -6 -22 -10 -9 -11 -9 -5 2 4 8 2 17 -6 22 -9 6
-10 9 -2 9 6 0 15 -5 19 -11z m-6236 -42 c0 -2 -12 -14 -27 -28 l-28 -24 24
28 c23 25 31 32 31 24z m-1392 -27 c-7 -10 -14 -17 -17 -15 -4 4 18 35 25 35
2 0 -1 -9 -8 -20z m2210 -35 c-3 -3 -9 2 -12 12 -6 14 -5 15 5 6 7 -7 10 -15
7 -18z m2572 22 c0 -2 -10 -12 -22 -23 l-23 -19 19 23 c18 21 26 27 26 19z
m-3470 -40 c0 -2 -10 -12 -22 -23 l-23 -19 19 23 c18 21 26 27 26 19z m1254
-23 c3 -8 2 -12 -4 -9 -6 3 -10 10 -10 16 0 14 7 11 14 -7z m5222 -15 c3 -6 1
-16 -6 -22 -10 -9 -11 -9 -5 2 4 8 2 17 -6 22 -9 6 -10 9 -2 9 6 0 15 -5 19
-11z m-3096 -13 c0 -2 -8 -10 -17 -17 -16 -13 -17 -12 -4 4 13 16 21 21 21 13z
m-3460 -29 c0 -2 -12 -14 -27 -28 l-28 -24 24 28 c23 25 31 32 31 24z m-1392
-27 c-7 -10 -14 -17 -17 -15 -4 4 18 35 25 35 2 0 -1 -9 -8 -20z m2530 -35
c-3 -3 -9 2 -12 12 -6 14 -5 15 5 6 7 -7 10 -15 7 -18z m2252 22 c0 -2 -10
-12 -22 -23 l-23 -19 19 23 c18 21 26 27 26 19z m-4855 -46 c3 -5 2 -12 -3
-15 -5 -3 -9 1 -9 9 0 17 3 19 12 6z m1385 6 c0 -2 -10 -12 -22 -23 l-23 -19
19 23 c18 21 26 27 26 19z m1574 -23 c3 -8 2 -12 -4 -9 -6 3 -10 10 -10 16 0
14 7 11 14 -7z m1826 -7 c0 -2 -12 -14 -27 -28 l-28 -24 24 28 c23 25 31 32
31 24z m3396 -8 c3 -6 1 -16 -6 -22 -10 -9 -11 -9 -5 2 4 8 2 17 -6 22 -9 6
-10 9 -2 9 6 0 15 -5 19 -11z m-6876 -42 c0 -2 -12 -14 -27 -28 l-28 -24 24
28 c23 25 31 32 31 24z m1460 -52 c0 -8 -2 -15 -4 -15 -2 0 -6 7 -10 15 -3 8
-1 15 4 15 6 0 10 -7 10 -15z m-1540 -28 c0 -2 -10 -12 -22 -23 l-23 -19 19
23 c18 21 26 27 26 19z m5748 -42 c-3 -3 -9 2 -12 12 -6 14 -5 15 5 6 7 -7 10
-15 7 -18z m1368 4 c3 -6 1 -16 -6 -22 -10 -9 -11 -9 -5 2 4 8 2 17 -6 22 -9
6 -10 9 -2 9 6 0 15 -5 19 -11z m-5496 -9 c0 -5 -2 -10 -4 -10 -3 0 -8 5 -11
10 -3 6 -1 10 4 10 6 0 11 -4 11 -10z m-33 -22 c-3 -8 -6 -5 -6 6 -1 11 2 17
5 13 3 -3 4 -12 1 -19z m453 18 c0 -3 -4 -8 -10 -11 -5 -3 -10 -1 -10 4 0 6 5
11 10 11 6 0 10 -2 10 -4z m-2120 -29 c0 -2 -12 -14 -27 -28 l-28 -24 24 28
c23 25 31 32 31 24z m1778 -62 c-3 -3 -9 2 -12 12 -6 14 -5 15 5 6 7 -7 10
-15 7 -18z m-1858 -18 c0 -2 -10 -12 -22 -23 l-23 -19 19 23 c18 21 26 27 26
19z m6068 -42 c-3 -3 -9 2 -12 12 -6 14 -5 15 5 6 7 -7 10 -15 7 -18z m1368 4
c3 -6 1 -16 -6 -22 -10 -9 -11 -9 -5 2 4 8 2 17 -6 22 -9 6 -10 9 -2 9 6 0 15
-5 19 -11z m-5496 -9 c0 -5 -2 -10 -4 -10 -3 0 -8 5 -11 10 -3 6 -1 10 4 10 6
0 11 -4 11 -10z m-33 -22 c-3 -8 -6 -5 -6 6 -1 11 2 17 5 13 3 -3 4 -12 1 -19z
m5241 -33 c2 -31 -12 -40 -29 -17 -13 16 -12 16 4 2 17 -13 19 -12 17 5 -3 22
-1 35 3 35 1 0 4 -11 5 -25z m-8961 -57 c2 -18 0 -20 -7 -8 -12 18 -13 30 -2
30 4 0 9 -10 9 -22z m1243 -62 c0 -2 -7 -7 -16 -10 -8 -3 -12 -2 -9 4 6 10 25
14 25 6z m-80 -80 c0 -2 -7 -7 -16 -10 -8 -3 -12 -2 -9 4 6 10 25 14 25 6z
m-124 -96 c0 -12 -4 -16 -9 -11 -5 5 -6 14 -3 20 10 15 12 14 12 -9z m42 13
c-10 -2 -18 -8 -18 -13 0 -5 8 -11 18 -13 15 -4 15 -5 0 -6 -19 -1 -32 14 -23
29 3 6 14 9 23 9 15 -1 15 -2 0 -6z m3549 -285 c-3 -7 -5 -2 -5 12 0 14 2 19
5 13 2 -7 2 -19 0 -25z m-86 -91 c-10 -9 -11 -8 -5 6 3 10 9 15 12 12 3 -3 0
-11 -7 -18z m-74 -69 c-3 -7 -5 -2 -5 12 0 14 2 19 5 13 2 -7 2 -19 0 -25z
m-86 -91 c-10 -9 -11 -8 -5 6 3 10 9 15 12 12 3 -3 0 -11 -7 -18z m-3960 -91
c-1 -3 -4 -6 -8 -7 -5 0 -15 -6 -23 -12 -8 -6 -6 -2 4 11 17 20 29 23 27 8z
m3800 -69 c-10 -9 -11 -8 -5 6 3 10 9 15 12 12 3 -3 0 -11 -7 -18z m3963 -36
c3 -5 -1 -11 -9 -14 -9 -4 -12 -1 -8 9 6 16 10 17 17 5z m-4037 -33 c-3 -7 -5
-2 -5 12 0 14 2 19 5 13 2 -7 2 -19 0 -25z m-3837 -18 c0 -5 -2 -10 -4 -10 -3
0 -8 5 -11 10 -3 6 -1 10 4 10 6 0 11 -4 11 -10z m7924 -38 c2 -4 -4 -8 -14
-8 -10 0 -16 4 -14 8 3 4 9 8 14 8 5 0 11 -4 14 -8z m-4173 -35 c-10 -9 -11
-8 -5 6 3 10 9 15 12 12 3 -3 0 -11 -7 -18z m-3846 -27 c3 -5 2 -10 -4 -10 -5
0 -13 5 -16 10 -3 6 -2 10 4 10 5 0 13 -4 16 -10z m3772 -42 c-3 -7 -5 -2 -5
12 0 14 2 19 5 13 2 -7 2 -19 0 -25z m-3837 -18 c0 -5 -2 -10 -4 -10 -3 0 -8
5 -11 10 -3 6 -1 10 4 10 6 0 11 -4 11 -10z m3751 -73 c-10 -9 -11 -8 -5 6 3
10 9 15 12 12 3 -3 0 -11 -7 -18z m4144 3 c3 -5 1 -10 -4 -10 -6 0 -11 5 -11
10 0 6 2 10 4 10 3 0 8 -4 11 -10z m-7990 -30 c3 -5 2 -10 -4 -10 -5 0 -13 5
-16 10 -3 6 -2 10 4 10 5 0 13 -4 16 -10z m3772 -42 c-3 -7 -5 -2 -5 12 0 14
2 19 5 13 2 -7 2 -19 0 -25z m5101 7 c-3 -3 -9 2 -12 12 -6 14 -5 15 5 6 7 -7
10 -15 7 -18z m-8964 -11 c3 -8 2 -12 -4 -9 -6 3 -10 10 -10 16 0 14 7 11 14
-7z m9366 12 c0 -2 -8 -10 -17 -17 -16 -13 -17 -12 -4 4 13 16 21 21 21 13z
m-5589 -99 c-10 -9 -11 -8 -5 6 3 10 9 15 12 12 3 -3 0 -11 -7 -18z m-3686 3
c3 -5 1 -10 -4 -10 -6 0 -11 5 -11 10 0 6 2 10 4 10 3 0 8 -4 11 -10z m369
-31 c-3 -5 -10 -7 -15 -3 -5 3 -7 10 -3 15 3 5 10 7 15 3 5 -3 7 -10 3 -15z
m3243 -41 c-3 -7 -5 -2 -5 12 0 14 2 19 5 13 2 -7 2 -19 0 -25z m-3512 11 c11
-16 1 -19 -13 -3 -7 8 -8 14 -3 14 5 0 13 -5 16 -11z m8983 -10 c9 -12 9 -16
-1 -16 -7 0 -14 9 -14 20 -1 11 -1 18 0 16 2 -2 8 -11 15 -20z m-5557 -92
c-10 -9 -11 -8 -5 6 3 10 9 15 12 12 3 -3 0 -11 -7 -18z m-3366 3 c3 -5 1 -10
-4 -10 -6 0 -11 5 -11 10 0 6 2 10 4 10 3 0 8 -4 11 -10z m3292 -72 c-3 -7 -5
-2 -5 12 0 14 2 19 5 13 2 -7 2 -19 0 -25z m-3192 11 c11 -16 1 -19 -13 -3 -7
8 -8 14 -3 14 5 0 13 -5 16 -11z m8663 -10 c9 -12 9 -16 -1 -16 -7 0 -14 9
-14 20 -1 11 -1 18 0 16 2 -2 8 -11 15 -20z m-1333 -9 c3 -6 -1 -7 -9 -4 -18
7 -21 14 -7 14 6 0 13 -4 16 -10z m-7270 -80 c3 -5 1 -10 -4 -10 -6 0 -11 5
-11 10 0 6 2 10 4 10 3 0 8 -4 11 -10z m5213 -25 c-3 -3 -9 2 -12 12 -6 14 -5
15 5 6 7 -7 10 -15 7 -18z m-2241 -37 c-3 -8 -6 -5 -6 6 -1 11 2 17 5 13 3 -3
4 -12 1 -19z m-2872 1 c11 -16 1 -19 -13 -3 -7 8 -8 14 -3 14 5 0 13 -5 16
-11z m8343 -10 c9 -12 9 -16 -1 -16 -7 0 -14 9 -14 20 -1 11 -1 18 0 16 2 -2
8 -11 15 -20z m-8283 -89 c3 -5 1 -10 -4 -10 -6 0 -11 5 -11 10 0 6 2 10 4 10
3 0 8 -4 11 -10z m7845 6 c0 -2 -8 -10 -17 -17 -16 -13 -17 -12 -4 4 13 16 21
21 21 13z m-2632 -31 c-3 -3 -9 2 -12 12 -6 14 -5 15 5 6 7 -7 10 -15 7 -18z
m-2561 -37 c-3 -8 -6 -5 -6 6 -1 11 2 17 5 13 3 -3 4 -12 1 -19z m-2552 1 c11
-16 1 -19 -13 -3 -7 8 -8 14 -3 14 5 0 13 -5 16 -11z m8023 -10 c9 -12 9 -16
-1 -16 -7 0 -14 9 -14 20 -1 11 -1 18 0 16 2 -2 8 -11 15 -20z m-7963 -89 c3
-5 1 -10 -4 -10 -6 0 -11 5 -11 10 0 6 2 10 4 10 3 0 8 -4 11 -10z m5213 -25
c-3 -3 -9 2 -12 12 -6 14 -5 15 5 6 7 -7 10 -15 7 -18z m-2881 -37 c-3 -8 -6
-5 -6 6 -1 11 2 17 5 13 3 -3 4 -12 1 -19z m-2232 1 c11 -16 1 -19 -13 -3 -7
8 -8 14 -3 14 5 0 13 -5 16 -11z m7703 -10 c9 -12 9 -16 -1 -16 -7 0 -14 9
-14 20 -1 11 -1 18 0 16 2 -2 8 -11 15 -20z m-7643 -89 c3 -5 1 -10 -4 -10 -6
0 -11 5 -11 10 0 6 2 10 4 10 3 0 8 -4 11 -10z m4215 -15 c13 -14 21 -25 18
-25 -2 0 -15 11 -28 25 -13 14 -21 25 -18 25 2 0 15 -11 28 -25z m998 -10 c-3
-3 -9 2 -12 12 -6 14 -5 15 5 6 7 -7 10 -15 7 -18z m-5113 -36 c11 -16 1 -19
-13 -3 -7 8 -8 14 -3 14 5 0 13 -5 16 -11z m7383 -10 c9 -12 9 -16 -1 -16 -7
0 -14 9 -14 20 -1 11 -1 18 0 16 2 -2 8 -11 15 -20z m-3188 -24 c13 -14 21
-25 18 -25 -2 0 -15 11 -28 25 -13 14 -21 25 -18 25 2 0 15 -11 28 -25z
m-4135 -65 c3 -5 1 -10 -4 -10 -6 0 -11 5 -11 10 0 6 2 10 4 10 3 0 8 -4 11
-10z m6885 6 c0 -2 -8 -10 -17 -17 -16 -13 -17 -12 -4 4 13 16 21 21 21 13z
m-2659 -33 c13 -16 12 -17 -3 -4 -10 7 -18 15 -18 17 0 8 8 3 21 -13z m-4126
-34 c11 -16 1 -19 -13 -3 -7 8 -8 14 -3 14 5 0 13 -5 16 -11z m7063 -10 c9
-12 9 -16 -1 -16 -7 0 -14 9 -14 20 -1 11 -1 18 0 16 2 -2 8 -11 15 -20z
m-2868 -24 c13 -14 21 -25 18 -25 -2 0 -15 11 -28 25 -13 14 -21 25 -18 25 2
0 15 -11 28 -25z m-4135 -65 c3 -5 1 -10 -4 -10 -6 0 -11 5 -11 10 0 6 2 10 4
10 3 0 8 -4 11 -10z m4226 -27 c13 -16 12 -17 -3 -4 -10 7 -18 15 -18 17 0 8
8 3 21 -13z m-4126 -34 c11 -16 1 -19 -13 -3 -7 8 -8 14 -3 14 5 0 13 -5 16
-11z m6743 -10 c9 -12 9 -16 -1 -16 -7 0 -14 9 -14 20 -1 11 -1 18 0 16 2 -2
8 -11 15 -20z m-1334 -5 c5 -14 4 -15 -9 -4 -17 14 -19 20 -6 20 5 0 12 -7 15
-16z m-1214 -19 c13 -14 21 -25 18 -25 -2 0 -15 11 -28 25 -13 14 -21 25 -18
25 2 0 15 -11 28 -25z m1000 5 c0 -5 -2 -10 -4 -10 -3 0 -8 5 -11 10 -3 6 -1
10 4 10 6 0 11 -4 11 -10z m-33 -22 c-3 -8 -6 -5 -6 6 -1 11 2 17 5 13 3 -3 4
-12 1 -19z m-5102 -48 c3 -5 1 -10 -4 -10 -6 0 -11 5 -11 10 0 6 2 10 4 10 3
0 8 -4 11 -10z m5213 -25 c-3 -3 -9 2 -12 12 -6 14 -5 15 5 6 7 -7 10 -15 7
-18z m-987 -2 c13 -16 12 -17 -3 -4 -10 7 -18 15 -18 17 0 8 8 3 21 -13z
m-4126 -34 c11 -16 1 -19 -13 -3 -7 8 -8 14 -3 14 5 0 13 -5 16 -11z m6423
-10 c9 -12 9 -16 -1 -16 -7 0 -14 9 -14 20 -1 11 -1 18 0 16 2 -2 8 -11 15
-20z m-348 8 c0 -2 -10 -12 -22 -23 l-23 -19 19 23 c18 21 26 27 26 19z
m-1880 -32 c13 -14 21 -25 18 -25 -2 0 -15 11 -28 25 -13 14 -21 25 -18 25 2
0 15 -11 28 -25z m-4135 -65 c3 -5 1 -10 -4 -10 -6 0 -11 5 -11 10 0 6 2 10 4
10 3 0 8 -4 11 -10z m4226 -27 c13 -16 12 -17 -3 -4 -17 13 -22 21 -14 21 2 0
10 -8 17 -17z m-4126 -34 c11 -16 1 -19 -13 -3 -7 8 -8 14 -3 14 5 0 13 -5 16
-11z m6103 -10 c9 -12 9 -16 -1 -16 -7 0 -14 9 -14 20 -1 11 -1 18 0 16 2 -2
8 -11 15 -20z m-1908 -24 c13 -14 21 -25 18 -25 -2 0 -15 11 -28 25 -13 14
-21 25 -18 25 2 0 15 -11 28 -25z m-4135 -65 c3 -5 1 -10 -4 -10 -6 0 -11 5
-11 10 0 6 2 10 4 10 3 0 8 -4 11 -10z m4226 -27 c13 -16 12 -17 -3 -4 -10 7
-18 15 -18 17 0 8 8 3 21 -13z m-4126 -34 c11 -16 1 -19 -13 -3 -7 8 -8 14 -3
14 5 0 13 -5 16 -11z m5783 -10 c9 -12 9 -16 -1 -16 -7 0 -14 9 -14 20 -1 11
-1 18 0 16 2 -2 8 -11 15 -20z m-1588 -24 c13 -14 21 -25 18 -25 -2 0 -15 11
-28 25 -13 14 -21 25 -18 25 2 0 15 -11 28 -25z m-4135 -65 c3 -5 1 -10 -4
-10 -6 0 -11 5 -11 10 0 6 2 10 4 10 3 0 8 -4 11 -10z m4226 -27 c13 -16 12
-17 -3 -4 -10 7 -18 15 -18 17 0 8 8 3 21 -13z m-2461 -27 c-7 -7 -13 -7 -20
0 -6 6 -3 10 10 10 13 0 16 -4 10 -10z m-1665 -7 c11 -16 1 -19 -13 -3 -7 8
-8 14 -3 14 5 0 13 -5 16 -11z m5463 -10 c9 -12 9 -16 -1 -16 -7 0 -14 9 -14
20 -1 11 -1 18 0 16 2 -2 8 -11 15 -20z m-1268 -24 c13 -14 21 -25 18 -25 -2
0 -15 11 -28 25 -13 14 -21 25 -18 25 2 0 15 -11 28 -25z m-4135 -65 c3 -5 1
-10 -4 -10 -6 0 -11 5 -11 10 0 6 2 10 4 10 3 0 8 -4 11 -10z m4226 -27 c13
-16 12 -17 -3 -4 -10 7 -18 15 -18 17 0 8 8 3 21 -13z m-4126 -34 c11 -16 1
-19 -13 -3 -7 8 -8 14 -3 14 5 0 13 -5 16 -11z m5143 -10 c9 -12 9 -16 -1 -16
-7 0 -14 9 -14 20 -1 11 -1 18 0 16 2 -2 8 -11 15 -20z m-948 -24 c13 -14 21
-25 18 -25 -2 0 -15 11 -28 25 -13 14 -21 25 -18 25 2 0 15 -11 28 -25z
m-4135 -65 c3 -5 1 -10 -4 -10 -6 0 -11 5 -11 10 0 6 2 10 4 10 3 0 8 -4 11
-10z m4226 -27 c13 -16 12 -17 -3 -4 -17 13 -22 21 -14 21 2 0 10 -8 17 -17z
m-4126 -34 c11 -16 1 -19 -13 -3 -7 8 -8 14 -3 14 5 0 13 -5 16 -11z m4823
-10 c9 -12 9 -16 -1 -16 -7 0 -14 9 -14 20 -1 11 -1 18 0 16 2 -2 8 -11 15
-20z m-628 -24 c13 -14 21 -25 18 -25 -2 0 -15 11 -28 25 -13 14 -21 25 -18
25 2 0 15 -11 28 -25z m-305 -75 c3 -6 -1 -7 -9 -4 -18 7 -21 14 -7 14 6 0 13
-4 16 -10z m-3730 -51 c11 -16 1 -19 -13 -3 -7 8 -8 14 -3 14 5 0 13 -5 16
-11z m4503 -10 c9 -12 9 -16 -1 -16 -7 0 -14 9 -14 20 -1 11 -1 18 0 16 2 -2
8 -11 15 -20z m-3833 1 c3 -5 1 -10 -4 -10 -6 0 -11 5 -11 10 0 6 2 10 4 10 3
0 8 -4 11 -10z m-610 -90 c3 -5 1 -10 -4 -10 -6 0 -11 5 -11 10 0 6 2 10 4 10
3 0 8 -4 11 -10z m100 -61 c11 -16 1 -19 -13 -3 -7 8 -8 14 -3 14 5 0 13 -5
16 -11z m4183 -10 c9 -12 9 -16 -1 -16 -7 0 -14 9 -14 20 -1 11 -1 18 0 16 2
-2 8 -11 15 -20z m-3833 1 c3 -5 1 -10 -4 -10 -6 0 -11 5 -11 10 0 6 2 10 4
10 3 0 8 -4 11 -10z m-290 -90 c3 -5 1 -10 -4 -10 -6 0 -11 5 -11 10 0 6 2 10
4 10 3 0 8 -4 11 -10z m3830 -10 c3 -6 -1 -7 -9 -4 -18 7 -21 14 -7 14 6 0 13
-4 16 -10z m-3730 -51 c11 -16 1 -19 -13 -3 -7 8 -8 14 -3 14 5 0 13 -5 16
-11z m3863 -10 c9 -12 9 -16 -1 -16 -7 0 -14 9 -14 20 -1 11 -1 18 0 16 2 -2
8 -11 15 -20z"/>
<path d="M9444 5428 l-19 -23 23 19 c21 18 27 26 19 26 -2 0 -12 -10 -23 -22z"/>
<path d="M9715 4360 c-10 -11 -15 -20 -11 -20 11 0 39 30 34 36 -3 2 -13 -5
-23 -16z"/>
<path d="M9240 4290 c-8 -5 -12 -12 -9 -15 4 -3 12 1 19 10 14 17 11 19 -10 5z"/>
<path d="M9555 4200 c-10 -11 -15 -20 -11 -20 11 0 39 30 34 36 -3 2 -13 -5
-23 -16z"/>
<path d="M9150 4199 c0 -5 5 -7 10 -4 6 3 10 8 10 11 0 2 -4 4 -10 4 -5 0 -10
-5 -10 -11z"/>
<path d="M9395 4040 c-10 -11 -15 -20 -11 -20 11 0 39 30 34 36 -3 2 -13 -5
-23 -16z"/>
<path d="M8990 4039 c0 -5 5 -7 10 -4 6 3 10 8 10 11 0 2 -4 4 -10 4 -5 0 -10
-5 -10 -11z"/>
<path d="M8920 3970 c-8 -5 -12 -12 -9 -15 4 -3 12 1 19 10 14 17 11 19 -10 5z"/>
<path d="M9245 3890 c-3 -5 -1 -10 4 -10 6 0 11 5 11 10 0 6 -2 10 -4 10 -3 0
-8 -4 -11 -10z"/>
<path d="M8760 3810 c-8 -5 -12 -12 -9 -15 4 -3 12 1 19 10 14 17 11 19 -10 5z"/>
<path d="M9075 3720 c-10 -11 -15 -20 -11 -20 11 0 39 30 34 36 -3 2 -13 -5
-23 -16z"/>
<path d="M8670 3719 c0 -5 5 -7 10 -4 6 3 10 8 10 11 0 2 -4 4 -10 4 -5 0 -10
-5 -10 -11z"/>
<path d="M8600 3650 c-8 -5 -12 -12 -9 -15 4 -3 12 1 19 10 14 17 11 19 -10 5z"/>
<path d="M8915 3560 c-10 -11 -15 -20 -11 -20 11 0 39 30 34 36 -3 2 -13 -5
-23 -16z"/>
<path d="M8510 3559 c0 -5 5 -7 10 -4 6 3 10 8 10 11 0 2 -4 4 -10 4 -5 0 -10
-5 -10 -11z"/>
<path d="M7524 3508 l-19 -23 23 19 c12 11 22 21 22 23 0 8 -8 2 -26 -19z"/>
<path d="M8440 3490 c-8 -5 -12 -12 -9 -15 4 -3 12 1 19 10 14 17 11 19 -10 5z"/>
<path d="M8755 3400 c-10 -11 -15 -20 -11 -20 11 0 39 30 34 36 -3 2 -13 -5
-23 -16z"/>
<path d="M7364 3348 l-19 -23 23 19 c21 18 27 26 19 26 -2 0 -12 -10 -23 -22z"/>
<path d="M8280 3330 c-8 -5 -12 -12 -9 -15 4 -3 12 1 19 10 14 17 11 19 -10 5z"/>
<path d="M8595 3240 c-10 -11 -15 -20 -11 -20 11 0 39 30 34 36 -3 2 -13 -5
-23 -16z"/>
<path d="M8190 3239 c0 -5 5 -7 10 -4 6 3 10 8 10 11 0 2 -4 4 -10 4 -5 0 -10
-5 -10 -11z"/>
<path d="M8120 3170 c-8 -5 -12 -12 -9 -15 4 -3 12 1 19 10 14 17 11 19 -10 5z"/>
<path d="M8435 3080 c-10 -11 -15 -20 -11 -20 11 0 39 30 34 36 -3 2 -13 -5
-23 -16z"/>
<path d="M8030 3079 c0 -5 5 -7 10 -4 6 3 10 8 10 11 0 2 -4 4 -10 4 -5 0 -10
-5 -10 -11z"/>
<path d="M8275 2920 c-10 -11 -15 -20 -11 -20 11 0 39 30 34 36 -3 2 -13 -5
-23 -16z"/>
<path d="M7870 2919 c0 -5 5 -7 10 -4 6 3 10 8 10 11 0 2 -4 4 -10 4 -5 0 -10
-5 -10 -11z"/>
<path d="M7800 2850 c-8 -5 -12 -12 -9 -15 4 -3 12 1 19 10 14 17 11 19 -10 5z"/>
<path d="M8115 2760 c-10 -11 -15 -20 -11 -20 11 0 39 30 34 36 -3 2 -13 -5
-23 -16z"/>
<path d="M7710 2759 c0 -5 5 -7 10 -4 6 3 10 8 10 11 0 2 -4 4 -10 4 -5 0 -10
-5 -10 -11z"/>
<path d="M7640 2690 c-8 -5 -12 -12 -9 -15 4 -3 12 1 19 10 14 17 11 19 -10 5z"/>
<path d="M7955 2600 c-10 -11 -15 -20 -11 -20 11 0 39 30 34 36 -3 2 -13 -5
-23 -16z"/>
<path d="M7550 2599 c0 -5 5 -7 10 -4 6 3 10 8 10 11 0 2 -4 4 -10 4 -5 0 -10
-5 -10 -11z"/>
<path d="M7480 2530 c-8 -5 -12 -12 -9 -15 4 -3 12 1 19 10 14 17 11 19 -10 5z"/>
<path d="M7795 2440 c-10 -11 -15 -20 -11 -20 11 0 39 30 34 36 -3 2 -13 -5
-23 -16z"/>
<path d="M7390 2439 c0 -5 5 -7 10 -4 6 3 10 8 10 11 0 2 -4 4 -10 4 -5 0 -10
-5 -10 -11z"/>
<path d="M7320 2370 c-8 -5 -12 -12 -9 -15 4 -3 12 1 19 10 14 17 11 19 -10 5z"/>
<path d="M7635 2280 c-10 -11 -15 -20 -11 -20 11 0 39 30 34 36 -3 2 -13 -5
-23 -16z"/>
<path d="M7230 2279 c0 -5 5 -7 10 -4 6 3 10 8 10 11 0 2 -4 4 -10 4 -5 0 -10
-5 -10 -11z"/>
<path d="M7160 2210 c-8 -5 -12 -12 -9 -15 4 -3 12 1 19 10 14 17 11 19 -10 5z"/>
<path d="M7475 2120 c-10 -11 -15 -20 -11 -20 11 0 39 30 34 36 -3 2 -13 -5
-23 -16z"/>
<path d="M7070 2119 c0 -5 5 -7 10 -4 6 3 10 8 10 11 0 2 -4 4 -10 4 -5 0 -10
-5 -10 -11z"/>
<path d="M7315 1960 c-10 -11 -15 -20 -11 -20 11 0 39 30 34 36 -3 2 -13 -5
-23 -16z"/>
<path d="M7155 1800 c-10 -11 -15 -20 -11 -20 11 0 39 30 34 36 -3 2 -13 -5
-23 -16z"/>
</g>
</svg>
